<svg xmlns="http://www.w3.org/2000/svg" width="300" height="300" version="1.1" style="shape-rendering:geometricPrecision; text-rendering:geometricPrecision; image-rendering:optimizeQuality; fill-rule:evenodd; clip-rule:evenodd" viewBox="0 0 18000 13000"> <defs> <style type="text/css">  .fil1 {fill:#67584c} .fil2 {fill:#d3b975} .fil0 {fill:#d8c17d}  </style> </defs> <g id="Layer_x0020_1">  <path class="fil0" d="M4771 4998c-1,-3 6,3 0,0zm-729 2415c-10,21 -18,24 -30,39 -6,8 -5,18 -12,22 -14,9 -16,-5 -19,15 29,-1 20,-1 43,-12 19,-9 33,-16 44,-34 13,-20 29,-27 53,-19 -2,36 -30,41 -58,52 -12,5 -16,19 -27,27 -16,11 -22,7 -20,34 25,0 31,-3 48,-10 17,-7 25,-18 39,-22 31,-9 57,-39 82,-39l0 23c-10,3 -18,11 -26,18l-20 14c-23,19 -48,3 -45,41 44,-9 41,-13 81,-25l10 -4c23,-9 42,-17 56,-39l38 -2c3,7 4,6 1,14 -10,23 -35,31 -57,38 -4,1 -14,5 -19,8 -18,10 -41,25 -61,27 -5,8 0,3 -7,9 -4,41 40,10 57,7 37,-8 42,-23 73,-15 3,34 -18,33 -38,44 -5,3 -13,12 -16,15 21,1 131,-26 151,-36 23,-12 28,-33 59,-15 0,9 1,16 -3,22 -4,7 -4,4 -13,10 -34,24 -43,28 -87,38 -17,4 -11,-2 -19,9 4,3 -2,5 24,4 26,-1 72,0 93,-12l59 -16c17,0 14,2 23,8l-4 25c-15,2 -8,3 -17,6 -23,8 -49,1 -71,8 -17,5 -20,10 -39,11 -18,1 -34,0 -48,6 1,7 1,5 4,10l5 6 1 2 107 -13c15,-7 19,-10 35,-13 5,-1 11,-1 15,-2 13,-3 3,-1 11,-5 30,-17 41,-1 68,-16 16,-9 27,-11 45,-16 26,-8 53,-22 52,21 -9,5 -9,4 -20,8 -10,4 -10,6 -17,9 -24,11 -48,-3 -60,18 -26,3 -49,12 -74,17 -15,3 -14,3 -17,17 20,1 39,0 58,-6 14,-5 28,-2 41,-6 13,-5 11,-6 29,-7 30,-3 34,-13 58,-16 18,-3 16,-1 28,-10 11,-8 20,-7 36,-9 5,-4 10,-7 17,-10l20 -13c16,-12 48,-25 52,0 2,11 -3,23 -13,28l-73 36c-15,7 -28,4 -40,14 28,17 82,-16 105,-21 49,-10 61,-36 90,-25 13,31 -21,39 -42,50 -29,15 -38,15 -82,18 -7,8 -6,9 -17,12 -18,4 -9,-2 -23,9 11,5 18,4 33,3 20,-14 16,-13 48,-14 10,0 19,-1 26,-4l8 -5c14,-7 28,-3 42,-8 9,-3 11,-7 20,-11 23,-9 42,-15 47,8 -14,21 -32,19 -54,29l-62 19c-29,4 -35,11 -68,13 -8,1 -28,3 -35,5 -9,3 -23,11 -29,15l20 4c62,7 112,-2 171,-10 21,-3 46,0 65,-12 26,-16 71,-28 109,-27 0,6 2,12 0,17 -5,20 -58,24 -72,30 -49,19 -50,4 -82,26 -7,5 1,0 -6,4 -19,10 -52,-3 -71,11 16,6 137,1 170,-1 20,-1 29,-6 54,-6 66,-1 78,-9 135,-15 10,-1 13,-4 22,-7 17,-7 34,-8 48,3 2,32 -12,32 -36,40 -16,6 -50,6 -71,7 -38,1 -65,14 -102,15 -9,0 -18,0 -25,5 -9,5 0,0 -6,4 31,2 104,11 131,-1 36,-15 82,-9 123,-9 10,0 23,-2 32,2 10,5 7,11 12,21l12 0 1 -19c14,-5 9,-8 27,-7l18 23c14,0 25,-2 39,-5 15,-3 15,-9 33,-12 45,-7 20,1 78,-13 24,-6 35,-2 76,-16 62,-20 54,-27 105,-29 12,0 26,1 35,9l0 15c-11,4 -18,8 -28,13l-65 23c-12,5 -23,5 -35,9 -10,4 -21,9 -31,12l-37 7c-18,7 -49,9 -71,18 -32,12 -55,4 -74,11 -26,10 -41,18 -70,18 -24,0 -49,11 -73,15 -21,4 -56,-1 -76,12l4 13c29,1 32,-3 54,-6 31,-4 87,5 114,-7 14,-6 31,-12 51,-13l105 -17c29,-5 87,-4 114,-13 28,-9 65,-8 79,-12 30,-10 74,-18 83,-22l39 -12c36,-7 74,-10 105,-21 46,-16 30,-6 49,-12 20,-6 30,-11 53,-12 14,-5 27,-16 51,-17l68 -8c21,-3 46,-5 66,-9 9,-2 18,-6 28,-7 26,-3 56,2 80,-9 24,-11 60,-8 86,-9 37,-1 54,-22 132,-22 33,0 57,-7 90,-11 29,-4 54,-14 86,-14 20,0 41,2 61,-2l35 -6c16,-1 35,0 50,-2 16,-2 27,-8 48,-6 78,5 93,1 159,3 63,2 126,6 189,4 31,-1 47,6 78,6 47,1 37,1 78,9 23,4 53,1 75,9l66 19c10,3 17,10 27,13 11,3 29,1 40,4 10,3 18,11 28,12l53 11c8,2 10,1 16,3 17,6 40,17 62,23 21,5 21,3 29,15 28,4 36,12 59,19l22 9c2,1 3,2 4,2 1,0 1,0 3,1 31,12 51,22 82,36 21,10 60,30 81,37 10,3 94,-2 108,-4 -10,-17 -44,-29 -62,-38 -50,-24 -32,-15 -85,-20 -7,-13 -9,-23 0,-38 52,0 157,80 183,84 5,1 13,1 19,1 23,4 37,14 58,0 -5,-10 -4,-8 -14,-13l-60 -29c-4,-1 -6,-2 -10,-3 -28,-10 -48,-22 -79,-26 -8,-19 -16,-4 -10,-30 34,-6 111,45 146,54 -1,-26 -3,-25 5,-45 42,0 121,45 149,53 29,9 56,16 85,10 31,-6 62,-7 90,-14 15,-4 25,-13 35,-15 15,-4 34,1 50,1 43,-1 77,-6 115,-14l7 -2c4,-1 9,-1 14,-1 18,-2 20,-9 38,-12 16,-3 33,1 49,-3 15,-4 19,-12 38,-14 32,-4 68,3 98,-5 40,-10 98,-9 137,-15 48,-8 129,-4 192,-15 16,-3 31,-2 47,-4l520 -18c40,0 81,1 122,2 33,1 54,6 84,5l6 -1c0,0 6,-1 8,-1 39,-4 88,6 128,9 23,1 68,-8 98,-9 28,-1 91,1 109,-6 41,-16 81,-13 125,-7 18,2 37,0 54,1 12,1 19,8 39,11 15,2 33,2 46,8l20 4c33,4 67,5 100,2l3 0 21 -3c17,-3 35,-2 52,-2l142 -6c24,0 56,-3 77,4 27,9 65,7 96,6 35,0 64,3 94,10 30,7 69,-2 99,-3 21,-24 24,-57 88,-28 1,12 -2,20 7,24 21,8 34,-12 50,-20 19,-10 23,3 31,17l32 -7c16,-6 35,-3 52,-3 14,0 28,3 37,11 -7,11 -7,9 -7,27l28 0 -10 -25 -1 -3 -1 -3c28,-9 34,-13 51,11 5,-3 6,-4 10,-9 42,-4 24,8 28,48l22 -2c6,-8 13,-17 17,-26 11,-26 30,-33 58,-23l-5 28c-5,5 -3,1 -5,5 -3,5 -5,11 -6,16 18,-1 15,-2 25,-11 18,-16 7,-6 18,-23l9 -8c5,-4 7,-7 11,-9 13,-7 22,-2 31,4 0,32 0,35 -13,45 -12,10 -10,-2 -12,18 39,-5 35,-20 58,-46 19,-21 61,-12 92,-12 33,0 20,-13 58,-11 16,4 16,12 38,6l8 -2c28,-6 30,18 20,30l-17 31c-3,6 -3,8 -4,15 19,-1 15,-9 33,-43l4 -9c15,-45 85,-43 55,-1 -13,18 -16,18 -24,37 -6,14 1,0 -9,12 -9,11 -13,36 5,44l54 2 19 -35c7,-13 0,2 7,-8 6,-9 7,-23 9,-32 -21,3 -27,22 -33,35 -3,7 -6,8 -8,12 -6,0 -18,3 -24,1 -9,-4 -14,-21 -5,-30l41 -61c11,-14 22,-32 43,-30 20,2 20,22 14,36 -5,12 -10,5 -11,20 10,-3 19,-10 27,-17 14,-11 30,-28 45,-36 37,-22 56,-9 83,-46 24,-2 29,-3 49,3l1 26 -25 19c-16,10 -44,20 -55,33 -5,6 -18,21 -22,24l-67 66c-8,8 -26,8 -36,12l0 20c60,3 77,-5 117,-35 26,-20 42,-44 76,-66l155 -95c5,-3 7,-6 11,-9l16 -7c38,-24 34,-17 45,-23 16,-9 28,-17 49,-21 13,-3 27,-2 41,-4 16,-3 20,-10 31,-13 16,-3 32,0 46,-8 24,-14 34,-8 65,-16 11,-3 26,-9 38,-11 18,-2 23,-1 37,-6 49,-17 132,-28 187,-43l171 -13c80,3 160,1 240,1 40,-1 77,3 115,4 69,1 68,11 112,11 20,0 37,2 54,7 39,13 116,17 155,28 36,10 87,1 115,8 15,4 19,14 45,15 68,4 46,12 71,20 8,3 14,2 23,7 25,13 24,6 47,14 21,7 53,8 70,22 10,7 47,19 61,26 10,5 16,5 23,8l21 10c32,7 54,25 86,35l71 22c18,8 18,18 63,27 30,6 31,12 55,20 5,2 8,2 13,4 25,10 68,10 98,23l73 17c21,1 69,5 89,-1 35,-11 41,-1 65,-35l11 -24c5,-24 23,-20 45,-21l-1 -17c-23,-9 -35,-9 -46,-32 -6,-13 -6,-22 -17,-33l-62 0 -11 -20c-3,-4 -4,-5 -6,-9 -6,-8 -33,-21 -42,-3l-1 19c5,14 33,21 43,30l0 24c-21,13 -65,8 -87,-4l-18 -12 -2 -2 -2 -2 -36 -32c-9,-6 -6,-1 -13,-12 -4,-5 -5,-11 -9,-17 -13,-24 -17,-51 10,-65l2 -1c15,-9 29,-14 38,-25 -1,-6 -12,-21 -5,-34 10,-19 43,-12 60,-12 13,18 22,16 40,23 14,6 10,6 20,11 27,14 29,7 50,32l27 22c9,7 11,11 17,17l33 32c12,9 36,40 41,53 4,11 6,15 10,24 15,33 -7,61 41,57 1,-8 -1,1 1,-7 9,-35 14,-49 40,-79l36 -49c10,-16 20,-23 34,-38l28 -30c16,-23 45,-50 71,-62l103 -76c13,-8 49,-20 55,-26l6 -16c-21,-10 -46,-10 -56,-39 -2,-6 -1,-6 -2,-13 12,-9 24,-6 38,-11 18,-6 25,-7 45,-7 2,5 8,18 8,19 18,2 25,9 42,2 -3,-13 -31,-23 -42,-31 -15,-12 -30,-26 -49,-27 -4,6 -6,11 -10,17l-17 0c-16,-21 -9,-22 -11,-54l-28 -26c-6,-6 -8,-8 -17,-9l-19 3c-11,6 -28,3 -41,3 -7,9 -22,25 -25,36l-36 1c0,-19 5,-35 -11,-37l4 50c-8,6 -1,0 -9,6l-10 7c-2,2 -8,6 -10,7 -5,3 -7,3 -12,5 -6,2 -15,6 -21,9 -15,8 -4,6 -22,12 -17,5 -34,13 -49,14 -28,2 -36,18 -57,32l-2 1 -130 92c-5,2 -12,2 -17,3 -13,17 -43,18 -64,11 -1,-21 10,-29 23,-39l2 -1 46 -28c15,-9 3,-1 15,-11 11,-10 30,-12 39,-19 1,-1 2,-3 3,-3l74 -59c11,-9 15,-19 24,-29l98 -98c5,-7 3,-10 10,-17 1,-1 7,-6 7,-6l80 -103c5,-4 11,-7 18,-9l2 -1 23 -7c-1,-9 2,-14 8,-23l32 -38c34,-39 46,-42 97,-15 27,14 10,5 32,22 5,4 5,3 9,8 13,12 28,27 37,41 2,4 1,2 4,6 16,18 19,37 31,61 12,22 3,44 7,69 -8,6 -17,19 -25,24 -8,5 -27,8 -32,20 0,26 15,27 23,46 8,19 13,25 31,36 41,25 122,33 172,5 6,-3 4,-4 11,-7 15,-7 15,-11 24,-27 28,-53 -12,-109 -37,-154 -12,-22 -16,-24 -22,-45 -4,-14 -1,-2 -6,-11l-40 -82c-9,-17 -9,-50 -22,-69l-14 -30c-8,-18 -10,-19 -11,-40 -2,-30 -15,-36 -16,-71 0,-18 2,-51 -1,-67 -4,-22 -10,-33 -10,-58 1,-30 4,-34 9,-59 4,-19 2,-49 3,-70 1,-19 36,-167 46,-189 1,-3 4,-9 5,-12l43 -113 28 -39c4,-6 9,-14 13,-21l48 -73c24,-43 60,-46 84,-69 9,-8 8,-11 26,-11 8,8 7,13 6,28l-5 3c-39,22 -54,67 -85,98 -6,6 -6,4 -12,12 -9,12 -10,15 -17,27 -7,12 -11,13 -18,26 -8,16 -13,30 -22,42 -5,7 -3,-1 -9,12 -7,15 -8,16 -15,28 -13,24 -23,51 -31,78l-16 52c-5,18 -19,52 -8,74 7,-10 5,-10 6,-27 1,-19 2,-14 10,-24 6,-7 11,-38 17,-51l42 -77 1 -2 27 -54c9,-15 13,-31 25,-43 17,-18 15,-22 27,-41 13,-20 16,-25 31,-40 5,-5 5,-4 9,-8l66 -69c3,-4 4,-5 8,-9 7,-7 10,-10 18,-17 15,-13 27,-31 43,-41 1,-1 4,-2 5,-2l2 -1c11,-8 9,-11 23,-17 33,-15 22,-29 66,-35l81 -24c18,-9 44,-5 57,-11l52 -15c35,-4 138,-9 168,10l10 6c14,5 41,6 58,9 16,3 14,7 25,10 19,5 41,3 58,10 17,7 34,4 48,18l42 25c40,25 36,16 50,24l43 25c6,5 12,13 18,19l2 2 29 25c9,9 16,10 24,21 5,6 9,12 15,19 26,33 30,21 53,64 8,15 -1,6 9,11l2 -18c-1,-7 -3,-16 -6,-22 -17,-40 -87,-106 -124,-133 -84,-62 -186,-102 -292,-121 -41,-8 -71,-4 -72,-34 24,-21 63,0 106,-5 19,-2 6,4 10,-7 -4,-3 8,-1 -7,-3 -3,-1 -10,0 -14,-1 0,-17 13,-34 18,-49l33 5 1 16c17,7 9,11 35,11 -5,-11 -2,-1 -10,-13 -8,-13 5,-3 -13,-14 -1,-34 -27,-22 -75,-77 -4,-4 -8,-12 -14,-18l-89 -80c-15,-19 -38,-35 -54,-53 -1,-1 -1,-2 -2,-2 0,0 0,0 -2,-1l-6 -5c-3,-3 -6,-6 -8,-8 -4,-4 -2,-2 -7,-7 -2,-2 -7,-5 -9,-8 -30,-28 -38,-51 -78,-74 -13,-7 -30,-37 -54,-55l-41 -36c-10,-10 -26,-17 -32,-28 -12,-21 -1,-24 -23,-41 -27,-4 -26,-10 -45,-16 -13,-4 -40,-6 -39,-26 10,-29 33,-1 32,-40l-15 -8c-15,8 -22,20 -38,20 -24,0 -26,-13 -37,-16l0 -47c22,-20 8,-45 3,-47 -12,-7 -43,0 -59,-3 -3,-1 -11,-3 -17,-3l-49 -42c-5,-44 8,-34 73,-34 2,-25 -14,-25 -25,-48 -12,-25 -36,-31 -58,-43 -7,-4 -9,-5 -18,-9 -19,-9 -10,-11 -39,-11 -30,-1 -56,-1 -72,-30 -9,-16 -5,-20 -19,-34l0 -14c10,-9 12,-5 20,-17 -6,-7 -15,-10 -23,-13 -9,-3 -21,-10 -24,-10l7 -26c7,-4 0,-1 9,-4 14,-4 13,1 21,-10 -3,-9 -9,-13 -19,-18 -38,-20 -76,-24 -119,-30 -22,-3 -44,-3 -64,-11 -42,-17 -56,-5 -106,-9 -50,-4 -54,-16 -132,-17 -12,0 -34,1 -43,-3 -23,-8 -37,3 -80,-6 -20,-4 -20,-8 -46,-8 -47,0 -91,2 -135,4 -47,2 -48,11 -132,11 -57,0 -181,-13 -233,3 -13,4 -30,0 -44,4l-5 2c-28,9 -48,7 -81,9 -24,2 -43,11 -68,14 -28,3 -77,-1 -107,9l-32 8c-34,3 -110,30 -159,38l-34 6c-11,3 -12,6 -28,10 -15,4 -16,8 -28,13 -10,4 -17,2 -29,8 -16,8 -41,16 -54,28 -10,8 -18,4 -33,7 -11,2 -17,7 -28,10 -11,3 -19,5 -30,10l-585 126c-46,8 -91,18 -135,24 -76,10 -199,34 -274,39 -24,2 -45,9 -68,11 -45,4 -106,-1 -147,11 -29,8 -40,9 -73,9 -32,0 -25,12 -61,14l-125 0c-48,1 -90,3 -139,3l-289 -6c-48,-13 -139,-14 -195,-21 -125,-15 -322,-48 -433,-105 -6,-3 -8,-4 -14,-7 -11,-5 -17,-9 -29,-15 -79,-43 -124,-99 -148,-111 -4,-2 -4,3 -20,-22l-8 -11c-19,-23 -26,-52 -30,-83l-18 -1c-11,20 -11,42 -14,71 -2,21 -13,25 -28,34 -8,4 -13,13 -24,10 -5,-3 -14,-9 -17,-16 -9,-20 3,-8 -13,-24 -23,-9 -30,22 -34,30 -4,8 -1,3 -4,6 -28,-8 -16,-61 -51,-62 -22,52 4,66 11,82 2,4 5,26 6,32l-14 4c-8,-7 -12,-14 -16,-22 -10,-19 -8,-42 -8,-63 -31,-26 -31,-2 -49,19l-9 12c-1,-1 -1,-2 -2,-2l-6 -8c-3,-5 -4,-6 -8,-13 -6,-11 -1,-38 -20,-30 -14,6 -13,28 -11,42 -37,12 -58,16 -56,-30 1,-17 3,-19 -9,-23 -5,7 -14,25 -17,38 -6,28 -12,18 -20,32 -19,0 -24,0 -39,-14l-12 -22c-19,-2 -33,1 -44,-14l-51 0c-29,37 -64,18 -132,20 -72,2 -152,0 -223,-5l-312 18c-82,8 -164,5 -245,10 -14,1 -28,1 -42,2 -147,6 -293,6 -440,6 -134,0 -303,1 -440,-5l-115 -4c-103,0 -209,-12 -311,-13 -104,-1 -236,-16 -345,-20 -35,-1 -79,-2 -114,-7 -44,-7 -109,-9 -153,-11 -47,-2 -98,-13 -145,-15 -25,-1 -51,-6 -74,-7 -26,-1 -52,-7 -81,-4l-6 20c-27,0 -12,-8 -22,-23l-19 0c-2,23 -10,34 -33,34l2 -40 -28 -1 -29 65c-43,96 -91,114 -126,160 22,2 36,-5 50,-19 13,-14 27,-26 48,-21 0,21 -16,32 -31,44l-2 2 -3 3c-23,22 -45,38 -80,37 -3,-5 -6,-12 -9,-17 -24,0 -59,23 -79,33 -77,39 -173,62 -257,80 -47,10 -97,21 -144,26 -105,9 -205,20 -311,19l-203 1c-191,0 -565,-40 -753,-80l-276 -59c-25,-6 -45,-13 -68,-17 -15,-3 -20,-4 -33,-8 -5,-2 -10,-3 -17,-4 -1,0 -10,0 -11,0 -13,2 -7,2 -11,5 6,8 17,11 25,21 14,1 33,-4 33,15 -42,3 -63,-12 -100,-13 -36,-2 -32,-9 -66,-19l-19 -11c-12,-6 -31,1 -41,-8 -16,-14 -35,-11 -56,-16 -8,-2 -22,-12 -26,-14 -10,-4 -25,-1 -37,-5 -13,-5 -10,-10 -30,-11 -47,-3 -56,-16 -109,-10 1,3 2,4 2,5 0,0 0,0 0,0 9,11 12,8 34,20 1,1 2,1 3,2 0,1 1,2 3,4 -7,25 -32,2 -78,15 0,13 5,28 -8,33 -8,3 -21,3 -26,2 -7,-1 -14,-13 -42,-19 6,-31 38,-14 56,-35l3 -4c3,-4 1,-2 5,-6 5,-6 15,-11 20,-16 -12,-17 -18,-14 -40,-21 -56,-18 -63,-44 -142,-43 -4,11 -3,5 -3,20l13 3c-2,7 -1,8 -14,10 -11,2 -13,1 -23,4 -1,43 -5,29 -10,47 -6,21 1,26 -23,35 -34,12 -51,-17 -93,-18 -27,0 -19,-9 -46,-11 -75,-5 -40,-5 -86,-13 -22,-4 -54,-3 -60,17 12,8 19,6 36,7 8,12 7,20 0,33 -7,0 -15,-1 -22,1l-13 8 -2 1c0,4 -1,7 0,11 2,9 2,10 11,11 24,3 36,-14 45,-27 17,-25 29,-30 60,-25 3,0 9,2 9,2 93,18 46,14 82,25 30,9 37,17 78,17 15,0 18,2 27,7l0 17 -31 0 -1 4c-2,4 -1,2 -4,7l-6 18c-15,1 -11,6 -29,6 -19,1 -36,-8 -52,-16 -9,-5 -11,-4 -28,-3 -1,11 1,17 8,23 14,11 18,-2 21,16 -1,1 -2,1 -2,2l-12 3c-6,0 -14,-1 -21,-1 -29,1 -23,25 -23,44 -54,0 -32,-7 -60,-18 -12,-5 -19,-6 -30,-11 -23,-10 -39,-16 -63,-18 -18,-1 -65,-16 -91,-11 -13,3 -8,3 -10,13l53 4c7,2 9,5 14,7 11,4 22,3 32,9l27 14c11,5 26,6 32,9 11,4 9,8 29,15l5 2 19 11c37,24 22,37 10,34l-22 -10c-10,-5 -9,-8 -18,-12 0,0 -10,-4 -13,-5 -35,-19 -65,-38 -108,-38 -12,0 -20,0 -27,8 8,8 21,7 32,13 17,9 20,6 37,11 15,5 42,35 43,51 -31,2 -25,-1 -47,-9 -20,-7 -28,-14 -41,-17 -38,-8 -10,-9 -60,-12 0,26 30,35 52,40 9,2 19,4 29,5 2,42 -27,18 -48,8 -14,-6 -9,-5 -16,-15 -7,0 -16,0 -23,-1 -11,-2 -10,-4 -18,-8 -20,-12 -31,7 -30,-21 11,-8 19,-8 30,-14 4,-9 2,-11 5,-19 6,-14 17,-13 9,-32 -12,-27 -37,-5 -48,6 -20,21 -9,25 -47,61 -5,5 -8,9 -13,14l-24 27 -4 3c-5,5 -8,8 -14,13 -17,18 -38,35 -60,48 -23,13 -46,27 -67,45l-64 45c-9,8 -23,13 -35,22l-102 60c-15,8 -36,11 -31,33 3,16 35,24 46,35l41 41c43,34 40,46 69,80l7 10c13,17 23,37 39,52 12,12 21,19 27,34 10,25 29,46 39,69l54 112c5,15 9,16 14,26 5,10 5,22 11,34 19,41 38,76 45,121l0 3c8,62 28,173 29,226 0,43 10,87 5,132 -1,14 -5,32 -6,47 -2,63 -9,92 -16,150 -3,26 -25,119 -33,133 -10,17 -5,24 -15,39 -16,24 -15,57 -27,81 -4,8 -4,11 -7,20 -6,19 -3,4 -10,20 -4,10 -2,10 -8,20 -13,21 -15,15 -35,52l-1 2c-8,12 -24,36 -39,32 -8,-2 -7,-15 -11,-19 -8,10 -23,25 -28,37 15,-3 2,-7 21,-7 18,0 8,41 11,56l9 15 34 -30c1,-1 2,-3 3,-4 3,-4 -1,-1 4,-6l48 -67c6,-8 9,-12 15,-19 6,-8 10,-12 15,-18 3,-27 7,-21 18,-40l37 -77c3,-9 2,-15 6,-25 4,-9 8,-12 11,-19 2,-8 2,-17 2,-25 1,-18 2,-14 7,-25 14,-32 -5,-68 33,-82 23,-9 32,-4 51,-1 7,33 6,73 0,110 -2,12 -10,22 -12,35l-36 81c-8,11 -11,26 -17,37 -9,17 -11,-1 -11,40 23,-4 29,-39 40,-56 7,-10 6,-2 11,-13 1,-3 3,-14 5,-19l17 -30 19 0c0,30 4,44 -18,66 -10,10 -4,2 -8,13l-8 15c-4,9 0,6 -6,14 -4,5 -6,1 -11,13 -4,10 0,10 -6,18l-9 15c-4,7 -15,11 -32,34 -4,5 -6,8 -10,14l-53 82c-11,9 -13,12 -23,21 -10,8 -2,0 -9,11l-49 66c-37,27 -42,47 -56,59 -5,4 -8,5 -12,12l17 0c8,-12 12,-10 26,-21l29 -21c30,-27 10,-24 42,-46 11,-8 23,-17 32,-29 2,-3 0,-1 4,-6 9,-11 12,-10 19,-22 23,-40 27,-47 55,-47 0,13 -2,20 -7,27l-27 25c-2,2 -4,10 -5,12 -7,12 -14,7 -6,25l31 -21c11,-11 6,-18 22,-32l23 -31c8,-18 12,-17 23,-32 29,-1 28,-1 27,27l-74 81c-3,3 -4,6 -7,10 -6,8 -12,12 -16,21 -8,15 -12,13 -25,26l-33 38c-15,20 -35,39 -52,56 -15,14 -23,22 -41,30 -16,6 -24,11 -32,28 27,0 47,-11 66,-27l28 -20c21,-14 43,-40 70,-42 -2,25 -17,30 -21,53 -17,7 -5,0 -16,14 -9,11 -30,17 -42,26 -1,0 -1,1 -2,2 -8,5 -11,3 -17,10 33,1 33,-3 59,-10 16,-5 25,-9 48,-25l2 -1 52 -43c14,-13 6,-3 16,-21l27 -2zm8534 -2212c-22,5 -22,8 -50,9 -47,1 -93,11 -152,10 -32,0 -72,-8 -104,-3 -44,7 -45,12 -69,39 -99,4 -67,3 -136,-10l-60 -6c-56,-2 -58,-8 -92,-13 -26,-4 -82,-14 -106,-26 -21,-11 -62,-17 -102,-30 -13,-4 -23,-12 -36,-15 -25,-6 -38,-12 -59,-22 -6,-3 -10,-7 -14,-9 -13,-7 -30,-2 -46,-8 -15,-5 -20,-9 -42,-7 5,18 42,25 53,28 14,4 11,8 29,13 17,5 15,6 14,25 -7,4 -11,8 -22,7l-22 -8c-22,-17 -39,-8 -65,-28l-82 -39c-34,-20 -42,-31 -52,-39 -38,-26 -28,-13 -45,-27 -22,-19 -27,-7 -26,-47 32,0 12,4 36,14 37,16 18,12 35,27 7,6 3,-3 17,12l17 0c-2,-17 -11,-20 -20,-32l-17 -5 -9 -14c-6,-9 -4,-1 -4,-16 6,0 22,-2 25,2l42 45c9,13 45,14 65,23 19,9 -8,4 32,15 20,6 2,8 30,13 44,7 -1,10 79,10 -12,-17 -25,3 -27,-20 26,1 27,-2 37,7 11,11 34,7 67,7 4,6 5,10 8,16l27 1c13,20 18,13 47,15 25,2 26,12 41,21l0 20c6,5 10,10 16,14 24,15 43,14 75,14l0 -28c14,-9 18,-9 39,-5 24,4 14,-2 37,6 23,8 56,2 80,12 19,8 17,6 40,6 115,-3 195,9 311,9 30,0 61,-1 91,-1 29,0 67,-7 67,19zm-7814 -2c18,6 10,-1 25,8 16,9 16,7 35,12 12,4 14,9 30,14 14,4 23,7 31,16 13,13 15,11 44,24 15,7 10,4 14,11l-35 -1c-13,-9 -4,-12 -27,-13 -27,-1 -17,-1 -32,-9 -19,-9 -7,5 -47,-14 -7,-3 -11,-3 -19,-6 -8,-3 -18,-9 -28,-13 -27,-13 -6,2 -43,-18 -31,-17 -19,9 -35,-30l85 18zm-175 10c21,-10 31,1 46,8l2 1 24 12c6,3 4,1 8,2 1,0 2,0 3,1l2 1 14 9c9,6 6,4 8,14 -62,0 -22,-4 -63,-16 -19,-6 -17,-15 -34,-24 -11,-6 -4,0 -12,-8zm-119 -5c13,0 16,4 17,4 -3,8 7,7 -14,8 -26,1 -14,-4 -18,-8 1,-1 2,-2 2,-2l12 -3zm388 -9c6,-8 16,-12 29,-4 7,4 3,1 6,8 -13,5 -26,7 -35,-4zm-460 40c20,0 30,5 35,21l-29 0 -6 -20zm-397 2122c-9,6 -1,5 -18,6l34 -60c22,0 20,2 19,23l-35 31zm588 -2099c25,-4 35,4 44,7 9,4 -1,-1 10,3 11,4 10,3 10,17 -13,6 -23,3 -40,2 -6,-2 -4,-11 -22,-18 -13,-5 -2,1 -10,-8 3,-2 0,-2 7,-3zm-267 0c18,-2 34,11 61,20 5,21 4,21 -20,20l-47 -37c3,-2 0,-2 7,-3zm693 54c29,-14 55,4 67,8 8,3 17,7 21,9 -1,20 -35,15 -49,13 -17,-3 -8,-3 -31,-19 -12,-8 -2,0 -7,-10zm-982 1830c-6,8 -16,16 -20,24 -2,5 -1,15 -28,21 0,-23 3,-30 14,-51l17 -27c16,-23 4,-25 18,-30 6,-2 17,-2 21,2 8,9 -1,29 -5,34l-17 27zm12062 -2100l0 -13c10,-9 21,-5 31,3 4,3 -1,0 6,4 13,8 32,10 37,24 -24,19 -51,-4 -67,-12 -10,-5 -3,-2 -7,-5zm-4623 -52c16,6 22,11 26,30 -19,0 -44,-6 -58,-12 -2,-22 10,-26 32,-18zm-6126 177l-20 0c-34,1 -37,-11 -62,-16 -13,-3 -25,0 -38,-4 -18,-6 -5,-9 -24,-13 -22,-6 -10,2 -31,-10 -10,-6 -15,-7 -29,-8 -27,-2 -13,-2 -27,-14 -11,-9 -14,-4 -18,-21 45,-1 23,2 50,9 14,3 19,2 29,9 1,0 1,1 2,2l2 2c27,19 26,15 54,16 27,1 100,17 121,31 -2,10 -3,9 -9,16zm-450 -141c10,5 0,1 8,5 19,9 14,-5 52,12 30,13 37,-2 42,20 -20,1 -44,3 -63,-3l-35 -10c-11,-4 -22,-3 -34,-4 -12,-10 -16,-11 -37,-12 -21,-2 -27,-3 -36,-18l2 -2 5 -8c24,-1 38,0 56,9 28,14 22,3 39,12zm-20 108c15,5 19,8 20,25l-25 -2c-36,-11 -29,-1 -44,-10 -4,-3 -3,-3 -6,-5 9,-17 19,-20 56,-7zm-60 -72c24,9 14,13 21,19 7,6 1,1 7,3l-54 3c-2,0 -12,0 -13,0 -19,-2 -33,-20 -37,-30 8,-10 13,-10 30,-9 31,1 28,7 36,12l9 3zm-66 35l3 22c-34,-7 -50,11 -47,-35 34,-2 31,-1 44,13zm-87 29c13,-4 20,-3 33,-2 11,20 8,6 24,18 -5,3 -4,5 -18,5 -19,0 -23,-5 -36,-16 -3,-3 -3,-3 -4,-4zm6562 -201l-14 0 0 -21c8,3 6,1 10,7 4,6 3,5 4,14zm-6675 111l0 17c-20,0 -21,2 -24,-14 10,-5 7,-4 24,-4zm74 31c32,-1 35,-2 34,20 -21,0 -34,1 -34,-20zm-133 57c19,-19 105,24 134,30 -1,8 0,7 2,15 -44,0 -53,-11 -77,-15 -39,-6 -27,-9 -48,-19 -14,-7 -6,1 -11,-11zm6605 -213c4,28 12,7 22,65 -22,5 -19,4 -35,-10l-9 -41c1,-16 1,-7 4,-11l18 -3z"/> <path class="fil1" d="M5078 8035c-10,8 -20,6 -36,4 8,-11 25,-9 36,-4zm3270 -53c4,-3 -8,-5 10,-4 15,0 8,3 10,4 -3,2 6,4 -10,4 -16,0 -7,-2 -10,-4zm-3230 0c9,-6 13,-6 20,-15 45,-4 62,1 107,-11 17,-4 22,-1 22,16l-149 10zm3170 -23c27,1 22,6 23,9 -3,2 0,3 -6,2 -8,-1 -3,0 -8,-2 -13,-5 -2,0 -10,-9zm3789 -65c11,7 11,6 10,23l-28 1c-1,-9 -3,-14 11,-21l5 -2c1,0 2,-1 3,-1zm116 38c-23,-5 -18,-9 -16,-36 8,-5 15,-6 28,-5 1,36 -9,13 -12,41zm-83 -18c7,-19 20,-21 34,-20 0,18 -3,33 -34,20zm3194 0c5,-8 9,-12 19,-19 1,0 2,-1 2,-1 23,-16 1,-9 17,-17 0,0 14,4 6,23 -5,13 -2,4 -7,7 -13,8 -21,8 -37,8zm-230 -200c11,2 4,-6 21,19 2,3 0,2 4,6 1,1 4,5 5,6l6 5c2,2 1,1 6,5l-11 6 -22 -11c-1,0 -1,-1 -2,-1l-6 -35zm21 -57l23 0c5,11 11,24 -6,27 -20,3 -18,-10 -16,-27zm-12125 -210c0,-12 1,-10 3,-20 25,-1 38,-7 41,17 -21,8 -26,2 -44,3zm-196 -20c14,-7 73,-6 95,2 27,10 20,8 22,14 -12,12 -71,5 -98,5l-19 -21zm-156 -31c43,-2 52,12 64,13 7,1 19,-1 27,0l0 23c-34,5 -52,-17 -80,-15l-11 -21zm55 -44c-5,14 3,8 -11,10 1,-13 -6,-9 11,-10zm198 1c7,9 11,12 24,15 22,5 12,5 27,13 9,5 17,7 30,11 6,2 2,-1 8,3 8,5 8,14 8,23 -7,4 -19,8 -35,10 -9,1 -10,-1 -16,-5 -4,-3 -14,-6 -17,-8 -3,-2 -3,-6 -10,-10 -20,-9 8,9 -33,-15l-14 -8c-3,-2 -4,-2 -6,-4 -17,-9 -19,-4 -35,-24 -30,-38 35,-6 69,-3zm12894 -28c22,1 10,11 48,42 13,10 43,27 53,39 -18,7 -50,-16 -63,-26 -14,-11 -17,-13 -23,-24 -7,-14 -14,-18 -16,-31zm-13259 -4l-1 -20c13,1 8,-2 17,7l3 4c8,10 0,-5 3,6 -10,7 -6,3 -23,3zm-122 -128c18,1 13,7 13,26 -18,-1 -14,-7 -13,-26zm1464 -31l3 16 -13 0c8,-14 -3,-10 10,-16zm-194 46c12,-9 20,-23 35,-33l-15 26c-7,8 -9,7 -20,7zm-1511 -50c25,0 28,12 41,25 12,13 25,14 35,29l49 55c21,11 12,7 32,22 1,1 3,3 4,3 1,0 1,1 2,2 1,0 2,1 2,1 1,0 2,1 2,1l15 8c1,0 2,1 3,1 21,8 33,16 52,31l107 56c16,6 35,6 49,15l83 46c55,26 71,16 105,24 20,4 27,12 51,13 60,3 279,8 311,-5 32,-13 17,-8 54,-11 15,-1 25,-12 47,-16 11,-2 15,-3 23,-7l118 -44c18,-7 24,-15 41,-23 79,-36 153,-79 223,-129 8,-6 11,-9 21,-14 -5,22 -22,35 -39,50 -30,26 -63,44 -92,70 -1,0 -1,1 -2,2 -1,0 -1,1 -2,2 -8,7 -21,13 -29,22l-24 19c-9,5 -17,7 -33,13 -13,4 -43,24 -59,28 -8,2 -9,0 -17,3 -13,5 2,2 -15,8 -40,14 -50,14 -88,31l-45 13c-30,6 -52,3 -84,4 -35,1 -44,11 -78,10 -56,0 -184,8 -235,-5 -38,-9 -13,-6 -59,-8l-30 -2c-18,-2 -31,-10 -43,-14 -8,-2 -27,-5 -38,-6l-30 -7c-15,-6 -21,-9 -39,-12 -10,-18 -85,-39 -105,-47 -7,-3 -8,-6 -20,-11l-44 -20c-15,-9 -49,-14 -59,-32 -5,-10 0,-10 -8,-22 0,0 -49,-58 -68,-52 -3,-24 -6,-15 -9,-37 -21,-6 -7,-9 -24,-16l-44 -37c-8,-10 -9,-15 -9,-32zm226 -11c1,13 2,12 -3,21 -8,-2 -14,-5 -15,-14 -1,-12 13,-8 18,-7zm1557 -12c1,-1 2,-3 2,-2 3,6 3,-3 3,-3 6,-3 4,-1 11,-1 0,14 -1,13 -12,16l-4 -9zm11777 13c-2,79 9,71 18,95 6,16 9,14 12,17l1 24c-11,-2 -15,-6 -23,-11 -3,-36 -3,-26 -12,-43 -21,-40 -16,-48 -16,-95 0,-27 2,-29 13,-44l33 2c47,10 23,5 56,41 26,29 11,5 22,45 6,22 11,30 7,61 -23,13 -42,15 -40,-21 5,-3 9,-8 16,-6 2,-25 -9,-49 -23,-63 -6,-7 -5,0 -16,-12l-38 0 -10 11zm-11807 -47c-1,16 -1,18 -13,34 -5,6 -1,2 -5,5 -7,6 -4,3 -10,11 -5,7 -4,6 -12,8 0,-19 14,-37 22,-45 6,-7 2,2 6,-11 1,-4 2,-10 4,-13 4,-10 9,-12 19,-15 0,29 1,16 -10,27zm-1718 -14c-2,-11 -1,-18 1,-29l20 1c2,18 5,26 -1,43 -13,-1 -16,2 -19,-15zm858 -53c0,-23 -2,-31 7,-41 3,5 2,-6 4,10 0,2 0,8 0,10 1,35 11,29 10,58l-14 0c-1,-1 -4,-2 -6,-17 -1,-6 0,-14 0,-20zm155 119c-4,-9 -2,-16 -5,-26 -3,-9 -5,-8 -7,-19 -9,-41 -3,0 -7,-51 -3,-45 -8,-42 6,-88l5 -10 4 11c9,44 -3,70 19,156 2,7 1,19 1,27l-15 1zm-1083 -74c3,4 2,1 4,6 7,14 17,36 17,53 -47,-1 -38,-78 -64,-94l-1 -35c14,1 20,4 27,27 8,27 5,28 17,43zm1323 -102c8,-4 5,-5 14,-7 5,11 9,67 -1,73 -4,2 -9,1 -12,-1 -6,-6 -3,-53 -1,-64zm14 -29c-12,-5 -9,-27 3,-32 0,6 0,14 0,20l-3 12zm-250 -26c2,4 5,0 4,14 -1,19 0,5 -4,10 -1,-1 -5,4 -4,-13 1,-12 4,-10 4,-11zm-119 24c1,-13 0,-16 10,-21 5,7 4,4 3,21l-14 0zm34 -10c2,-2 31,-48 43,-25 3,6 0,4 0,7 -2,5 -19,35 -21,47l-22 -1 0 -27zm139 125c-6,-15 -10,-105 9,-140l2 -5c12,-22 13,-21 29,-21 -5,14 1,-2 -8,11l-15 47 -10 6c-1,18 -1,36 0,54 0,22 4,35 -6,47zm104 -138l26 5c5,46 -12,203 7,231l18 0c13,-17 14,-21 14,-50 8,-8 6,-5 13,-13 24,-1 28,-4 39,-19 26,-34 23,-49 21,-93 -1,-19 3,-37 6,-56 14,-6 21,-16 40,-14l-3 25c-4,12 -2,14 -5,25 -5,16 -6,39 -5,58l24 -5c1,-17 1,-36 10,-51 5,-8 15,-10 22,-16l28 -26c19,-16 26,-11 37,-38 7,-17 18,-17 22,-18 34,-5 38,8 64,17 42,14 100,-6 78,47 0,1 -1,2 -1,2l-19 37c-13,22 -27,39 -36,62l-33 43c-17,11 -31,45 -53,60l-52 43c-34,42 -63,39 -92,70 -1,1 -1,1 -1,2l-75 47c-16,7 -4,6 -17,12l-82 44c-26,18 -62,24 -91,38l-58 27c-1,0 -2,1 -2,1l-7 2c-27,8 -71,23 -95,-4 -3,0 -10,0 -13,-1 -12,-2 -7,-2 -11,-4 1,-1 2,-2 2,-2l11 -10c6,-6 5,-7 8,-16 -8,-7 -13,-14 -27,-17 -13,-3 -21,-6 -32,-11 -6,-37 -1,-25 -16,-63 -8,-19 -15,-16 -32,-50 -8,-16 -10,-21 -29,-26 -24,19 -18,52 7,64 1,26 -8,18 -13,34 14,11 16,17 37,20l1 21c-39,2 -31,-5 -60,-11 -11,-3 -22,-3 -31,-7l-23 -14c-12,-10 -28,-22 -42,-28 -10,-4 -22,-3 -31,-7 -8,-4 0,-1 -7,-9 -7,-8 -2,-5 -16,-6 -15,22 1,19 -36,19 -14,-25 -9,-18 -30,-37 -9,-8 -16,-12 -29,-12 -2,62 55,24 57,99 17,5 11,5 20,17 9,13 11,4 11,25 -26,0 -34,-25 -52,-38l-21 -23c-28,-29 -36,-26 -50,-42 -19,-21 -30,-24 -52,-40 -19,-13 -9,-13 -18,-28 -2,-3 -7,-6 -10,-11l-9 -15c-11,-16 -10,-102 -10,-128 0,-14 -1,-29 1,-42 2,-16 8,-20 9,-39 2,-26 16,-45 19,-71l10 -34c4,-12 15,-8 28,-5 -8,24 13,44 -32,85 0,0 -1,1 -2,2l-8 6c-2,37 -9,59 6,92 7,-1 13,-2 17,-9 3,-7 4,-16 5,-19 3,-19 5,-35 14,-47 11,-14 10,-36 30,-60 9,0 9,1 17,4l6 13 24 0c1,1 2,1 2,2l5 9c4,16 -2,22 -13,32 0,19 -2,29 -3,45 -2,22 -3,26 6,40 11,0 4,-4 17,-3 7,0 10,3 10,10 2,18 -16,13 -31,13 -13,44 -4,54 9,70 19,23 16,30 25,55 0,1 1,2 1,3 10,22 27,48 53,49 9,-40 -6,-61 -24,-92 -6,-11 -3,-6 -8,-7 -1,-28 -1,-56 -1,-85 0,-28 -4,-56 16,-67 1,-19 3,-40 20,-49l3 31c-5,3 -8,4 -13,7 -1,20 5,23 14,37 10,14 14,18 6,42 -1,4 -3,8 -3,10 -2,12 -3,31 0,43 0,1 1,2 1,3 3,8 11,10 19,-2 8,-13 -2,-13 14,-16 7,18 7,33 6,57 -11,11 -10,10 -9,31 12,12 14,10 20,28 5,15 7,23 17,34l28 23c9,9 23,10 41,9l0 -13c-7,-5 -5,-2 -10,-6 -4,-4 -5,-7 -9,-11 -12,-11 -11,-2 -15,-22 -1,-8 -4,-26 -7,-31 -10,-17 -20,-17 -5,-43 13,-21 -1,-21 -6,-37 -3,-9 -1,-16 -2,-25 -2,-20 -6,-29 0,-51l14 -40c6,-16 8,-29 29,-27 4,44 -29,58 -9,111 3,7 6,14 8,22 3,12 2,18 6,29 7,23 11,26 30,38 0,-25 -1,-24 -8,-43 -6,-14 -9,-77 -9,-93 0,-19 3,-9 6,-21 1,-5 1,-18 1,-24 28,-16 9,-6 23,-29 9,7 7,4 6,20 -5,4 -8,7 -13,10 -1,25 -9,79 10,86 15,-11 9,-26 11,-48 2,-18 7,-32 7,-53 8,-7 14,-6 25,-7 0,1 1,5 1,6 -3,17 -17,13 -6,47 5,15 17,30 21,46l14 57c6,20 2,11 12,25 10,14 20,27 22,49 25,14 21,25 52,8 1,-9 2,-18 1,-27 -2,-14 -2,-8 -8,-19 -12,-23 -2,-21 -26,-32 0,-14 -2,-13 3,-23 12,1 11,6 25,18 3,2 10,11 11,13 2,6 1,16 2,22 2,24 18,29 37,35 13,4 20,17 40,2 34,-25 21,-45 22,-84 12,-9 13,-9 30,-9 0,7 12,21 16,30l25 0c2,-60 -2,-128 4,-180 1,-10 17,-72 26,-85 38,-56 53,-33 49,-15l-7 6c-2,3 -5,10 -6,12 -8,12 -10,4 -9,28zm-121 -51l17 0c-6,8 -6,11 -17,14l1 -14zm-731 -27c3,-9 6,-10 11,-15 6,-6 0,2 6,-7 0,0 3,-6 3,-7 27,-2 31,2 46,13l4 43c-7,2 -8,3 -17,3 -28,2 -9,1 -17,5 -7,1 -3,-3 -7,4 -3,5 -12,43 -10,55l1 6c7,36 3,78 2,116 0,20 0,32 -3,48 -11,68 -12,43 9,78 3,5 10,30 10,36 -7,-1 -8,-1 -12,-3 -1,0 -1,-1 -2,-1 -1,0 -1,-1 -2,-1 -16,-9 -6,2 -16,-9 -61,-64 -3,-69 -7,-126l-7 -115c-1,-15 3,-15 4,-30 0,-10 0,-21 -1,-31 0,-23 4,-36 3,-61zm920 27c0,-48 60,-1 0,0zm-1322 -54c0,-19 3,-80 11,-94 7,7 8,6 17,12 -4,12 6,128 6,154 7,16 10,-17 9,57 0,34 4,16 7,41 22,0 14,2 23,-5 1,0 3,-2 4,-2l0 -41c8,4 6,-7 7,13 4,60 0,50 -27,52l0 24 -19 1 -5 -65c-10,-16 -10,-8 -13,-33 -5,-41 -20,-52 -20,-112zm1881 41c14,-15 16,-36 18,-60l15 0c2,27 -6,27 -7,53 -1,106 -6,41 -16,78 -5,20 0,17 -12,36 -12,19 -11,19 -23,21 1,-25 2,-14 6,-25l12 -35c9,-23 6,-38 6,-69zm-328 -54c8,-5 9,-5 16,-10l2 15 -18 -5zm-1164 -14c4,-3 -8,-4 10,-4 16,0 3,1 6,4 -2,1 10,4 -9,4 -16,0 -1,1 -8,-4zm413 -64c13,15 -2,4 15,29l19 22 -20 0 -14 -17 0 -34zm-49 14c6,28 12,2 12,37l-24 -5c0,-1 -2,-5 -3,-7 0,0 -4,-7 -4,-7 -3,-8 -2,-11 -1,-19l22 1zm-62 60c23,-7 -10,-31 -14,-39 -7,-13 -1,-27 -1,-27 0,-1 1,-1 1,-2 2,-1 -4,-7 6,-1 8,4 -4,6 20,30 14,14 11,22 11,46 -14,10 -15,13 -37,13l-6 -7c-1,0 -2,-1 -2,-1 -10,-8 -8,1 -9,-15 10,0 24,5 30,3zm-74 -21c-35,-25 -26,-67 -22,-106l17 -1 16 54c7,34 16,6 16,53l-27 -1zm883 -53c5,8 6,8 -3,12 -5,-8 -4,-8 3,-12zm-1214 40c-1,-24 1,-86 20,-105 2,3 2,1 3,7l-1 32c-2,23 -24,23 -11,54l10 15c0,-1 1,1 2,2l17 0 14 -21c2,-3 0,-1 3,-7l21 -3 0 -34c0,0 6,-5 7,-6 3,-3 1,-1 6,-4 10,8 10,8 10,27 -1,27 -9,27 -24,40l-13 7c-5,4 -2,3 -3,6 -10,2 -8,1 -14,4l-3 85c-3,23 5,26 6,44 1,17 1,36 -3,48l-11 39c-3,-4 -4,-3 -6,-3 -1,27 -1,53 17,74 11,-8 3,0 9,-15 5,-12 0,-5 7,-12 1,-29 -2,-67 5,-91l23 1c12,25 5,37 4,47l-1 117c-32,1 -14,-7 -33,-7 -16,0 0,-1 -8,3 -6,6 -4,33 0,43 10,25 26,26 25,66 -12,0 -11,1 -19,-4l-38 -24c-1,-19 1,-57 -10,-72 -3,-5 -3,-3 -5,-5 -12,0 -15,1 -20,-3 -19,-15 -34,-55 -36,-79 -4,-40 -10,-117 -5,-152l1 -146 10 -6 5 -48c4,5 1,-4 6,10l3 288c0,1 0,2 0,3 3,19 7,13 21,39l10 24 11 -58c1,-76 11,-49 13,-83 3,-38 -3,-79 -3,-124l-23 3 0 -16zm14734 27c0,-18 4,-21 7,-34 7,-38 5,-23 20,-60 4,-11 5,-15 19,-16 1,19 -5,40 -11,59 -6,20 -18,22 -18,50l-17 2zm-14853 -125c-1,-17 0,-34 14,-44 8,18 2,29 15,36l10 4c0,0 1,1 2,1 2,43 -7,108 -7,152 0,14 0,27 0,41 0,22 4,20 6,34 4,31 -5,50 -7,74 -1,13 -1,27 1,40 0,1 0,2 1,3 15,77 -2,118 17,142 24,31 9,22 25,57 5,10 10,19 11,28 -16,-4 -42,-18 -52,-34 -9,-13 -22,-28 -35,-52 -10,-18 -30,-60 -33,-76 -1,-7 0,-16 -1,-23 -2,-16 -9,-24 3,-37 7,5 4,3 9,8 4,4 7,6 11,9 0,6 0,14 1,19l6 14c20,-4 13,-14 13,-37 0,-18 1,-36 1,-54 1,-35 -1,-73 -1,-108 0,-44 17,-188 -10,-196zm14768 71c-1,-2 -6,5 -3,-10 2,-13 8,-4 10,-20 4,-30 -11,-26 32,-57 8,-6 7,-3 14,-10 2,-3 6,-8 7,-11 13,24 -7,34 -7,60 0,26 20,31 -5,50 -9,1 -18,1 -27,1 -12,0 -13,1 -20,-3zm-14657 -146c7,-2 9,-3 17,-3l0 20 -17 0 0 -17zm14616 -13l0 0zm-14839 3c-14,0 -8,-3 -10,-3 4,-12 16,-3 20,0 -2,2 5,3 -10,3zm-71 72c0,-80 1,-100 29,-162 2,35 17,53 18,91 -26,4 -30,1 -30,27 0,18 0,37 0,55 -14,-3 -7,-2 -17,-10zm15018 -102c-5,-10 -7,-26 4,-34 12,7 8,3 5,19 -4,19 5,7 -9,16zm-14139 10c11,8 28,5 23,25l-4 10c-41,14 -76,-12 -98,-14 -3,-29 0,-30 -9,-54 -4,-12 -3,-13 0,-27l37 0c5,11 1,11 12,16 1,0 2,0 3,1 7,3 6,-2 22,21 6,9 6,16 14,23zm134 -56c1,23 -13,26 -39,22 -17,-3 -36,-6 -53,-9 -7,-1 -8,-1 -13,-2 -5,-1 -9,-3 -13,-4l-47 -15c-12,-6 -3,-6 -23,-7l-5 -8c-9,-11 -12,-9 -12,-35 6,0 22,0 27,-1 12,-3 2,-4 15,-8 27,-8 13,11 24,22 3,3 1,0 4,2 1,0 2,1 2,1l21 15c49,35 36,13 56,19 28,20 21,6 56,8zm-600 -34c4,-3 5,-4 10,-7 23,-15 8,-16 26,-21l-13 35c-16,23 -5,24 -10,52 -4,27 -22,24 -14,66 -8,4 -8,5 -13,11 -16,16 -14,11 -18,23 -3,10 -2,9 1,17 -23,2 -18,-5 -17,-29 0,-21 11,-119 24,-113 6,-5 -2,-3 24,-8l0 -27zm14622 0c-11,-11 -10,-28 -5,-42 3,-9 2,-6 5,-9 5,10 4,7 4,27 0,13 0,15 -3,24zm-14721 47c0,-29 9,-22 13,-44 4,-18 3,-28 20,-34l-20 91c-5,11 -6,7 -2,23l-14 1c0,5 0,4 -1,9l-3 4c-6,-9 -2,-7 -4,-18l11 -5 0 -27zm-209 -61c18,-24 13,-19 26,-20 -1,21 -10,4 -11,60l-16 0 1 -40zm14811 -37c9,-16 0,-25 -3,-37l20 -1c2,10 1,21 1,32 0,6 0,16 1,21 2,16 6,17 22,17 11,0 16,-2 20,10 16,51 6,62 -4,104 0,1 0,2 -1,3 0,1 -1,2 -1,2 -6,18 -1,47 -13,60 -7,8 -15,20 -24,24 -7,3 -12,2 -20,4 -21,5 -37,10 -61,9 1,-2 16,-21 17,-23 1,-1 5,-4 6,-4 4,-3 1,-1 5,-5 3,-2 2,-2 6,-4 12,-7 18,-16 29,-21 9,-4 20,-6 30,-11 1,-13 2,-30 -4,-41l-13 -22c-16,-22 -16,-42 -46,-56 -14,-7 -33,-8 -44,-17 -16,-12 -13,-19 -66,-17 -73,3 -40,9 -69,14 -10,2 -17,1 -26,4l-27 15c-14,12 -53,46 -61,60 -5,9 -6,11 -12,18 -14,15 -5,9 -12,23 -6,12 -21,21 -30,33l-20 44c-1,14 2,32 -1,47 -2,10 -10,13 -10,25 0,11 4,16 17,14 17,-2 17,-16 19,-31 3,-21 14,-21 19,-44 5,-25 18,-45 29,-66 6,-11 62,-66 66,-69 1,0 1,-1 2,-1l33 -18c16,-10 49,-26 68,-17 5,16 -24,46 -36,57l0 18c8,5 55,54 80,20 7,-10 12,-21 26,-25 0,34 0,22 -3,30 -9,23 -8,34 -27,52 -13,12 -33,41 -7,38l36 -4 9 18c18,29 -25,22 -1,59 8,12 4,9 23,11 0,21 -6,12 -7,34 4,14 28,36 45,30 15,-6 18,-32 47,-33l-1 34c3,3 7,6 10,9 -4,6 -5,5 -7,15 -1,0 -9,2 -10,3l-8 3c-10,4 -7,3 -13,7 -31,21 -56,26 -59,70 -32,13 -33,15 -33,40 16,5 31,7 46,-3 22,-15 25,-20 50,-12 11,3 13,2 25,1l62 -45c10,-9 10,-15 19,-25l28 -33c4,-4 9,-9 12,-15 3,-6 1,-5 5,-13 19,-36 12,-38 19,-55 4,-10 8,-9 10,-20l12 -50c2,-17 0,-11 5,-25 5,-16 14,-27 7,-52 -2,-6 -7,-14 -11,-20 -8,-13 -22,-22 -24,-38 31,-32 6,-39 1,-59 -4,-17 -4,-43 4,-55 8,10 11,26 16,38 5,15 13,20 30,24 -2,11 0,15 3,25 11,42 47,16 27,113 -5,27 -5,63 -19,86l-20 1c-4,8 -8,13 -17,17l0 42c7,5 14,8 20,13 1,24 -4,50 -10,71 -4,14 -18,41 -29,48 -2,17 -6,26 5,35 1,1 6,9 21,-1 9,-6 17,-16 21,-27 7,-17 18,-31 25,-49 5,-12 4,-26 8,-40l25 -73c10,-27 8,-56 19,-78 11,9 12,26 7,41 -5,17 -5,32 -7,47 -15,78 -13,47 -24,85 -5,19 2,1 -10,15 -7,9 -3,11 -8,19l-9 11c-1,1 -2,4 -2,5 -8,18 -21,35 -26,54 -4,12 -21,36 -29,49 -7,12 -18,16 -25,28 0,0 -5,8 -5,9l-2 4c-12,20 -41,41 -56,58l-21 20c-13,12 -33,13 -47,21l-56 24c-6,3 -2,1 -9,5 -12,8 -99,8 -118,2 -11,-4 -6,-5 -15,-9 -4,-2 -32,-7 -39,-7l-22 -13c-18,-9 -29,-5 -47,-15 -21,-11 -38,-27 -43,-31 -9,-6 -43,-59 -50,-71l-22 -29c-9,-10 -13,-18 -17,-30 -5,-18 -7,-20 -13,-38 -4,-14 -11,-18 -14,-33 -18,-83 -13,-171 12,-252l1 -5c6,-22 19,-49 28,-70l25 -49c14,-25 27,-55 50,-72l56 -46c1,-1 3,-2 4,-2 2,-1 5,-3 8,-5 6,-3 9,-4 17,-7l5 -2c1,0 2,-1 3,-1 42,-12 60,-28 109,-18l56 18c17,4 42,16 53,-3zm-14315 -51c-2,14 4,8 -10,9 2,-13 -6,-7 10,-9zm13615 101c-3,-6 -5,-15 -2,-25 3,-8 4,-5 9,-11 12,-14 16,-22 19,-41 4,-23 4,-12 13,-28l22 -48c8,-20 -1,-30 15,-42 15,-12 58,-31 79,-32 27,-1 24,-4 37,-17 18,-1 30,-1 39,8 13,14 7,30 30,37 8,2 11,2 19,3 11,1 26,3 36,7l17 7c28,15 29,7 50,17 19,9 43,18 68,21 24,40 -8,17 48,47 -17,8 -25,5 -48,6l-10 13c0,1 -1,1 -2,2 -5,5 -8,11 -14,13 -50,25 -21,11 -46,32l-54 65c0,1 -1,1 -2,2l-15 15c-34,32 -28,4 -48,26 -11,13 -7,23 -14,37 -13,2 -14,4 -21,-2l-8 -10c-12,-15 -17,-7 -31,-16 -3,-2 -5,-4 -7,-6 -26,-30 -6,-11 -37,-17 -11,-4 -7,-6 -17,-14l-29 -5c-7,-52 -31,-34 -42,-48l-10 -18 -14 0c-19,12 0,-1 -6,5 -8,8 -9,16 -24,22zm-12944 -138c8,-6 10,-9 24,-9 1,8 4,16 -2,27 -21,7 -23,0 -22,-18zm-585 19c-20,-5 -8,2 -12,-8 0,0 -1,-9 9,-2 3,2 2,5 4,10zm13497 19c-2,-3 -3,0 -4,-11 0,-2 1,-11 1,-13 1,-4 18,-40 37,-45 0,9 0,17 -1,25 -2,10 -5,10 -7,14 -8,16 -3,40 -27,29zm-13568 -51c16,-11 17,-17 35,-6 0,9 0,17 -3,23 -2,3 -14,10 -16,11 -21,10 -18,-11 -16,-28zm14598 98c6,11 3,-3 5,11 2,8 1,37 -3,47 -10,-19 -5,-24 -11,-42 -21,-65 -6,-42 -17,-87 -3,-13 -8,-30 -2,-42 9,11 4,14 9,27 3,9 11,16 13,19 1,21 -2,51 5,67zm-14920 -84c3,-18 24,-35 32,-42 0,0 1,-1 2,-2 8,-8 9,-14 31,-13l-4 31 27 -4 -1 20c-8,1 -23,11 -30,16 -1,52 1,45 -26,58l0 31c-19,15 -10,33 -22,48 -7,9 -9,9 -11,23 -8,51 -7,29 -14,53 -13,43 -14,31 -19,49 -3,11 -2,15 -8,25 -24,-16 4,-22 -20,-61l6 -4c4,-4 1,0 4,-6l10 -20c1,-4 0,-2 2,-8l34 -77c2,-3 5,-10 7,-14 18,-45 29,-33 28,-84 -15,-10 -19,-11 -27,-20zm118 7c0,-15 -1,-7 6,-18 4,-7 1,-1 4,-9 6,-15 -1,-5 9,-14 23,-19 -6,-5 31,-22 1,0 2,-1 2,-1 18,-8 38,-3 44,17 -1,0 -2,1 -2,1l-32 23c-13,10 -16,7 -27,11 -15,6 -5,11 -38,12zm105 -50c18,-1 19,-4 36,-11l18 -3c-1,13 -2,10 -2,21 -16,-2 -29,11 -36,23l-9 13c-11,15 -17,29 -19,50 -11,8 -15,7 -22,19 -11,17 -20,21 -17,36 -12,1 -23,4 -23,-8l22 -40c12,-26 6,-21 21,-39l15 -25c0,-1 1,-1 1,-2 18,-29 14,-11 14,-33zm14358 -44c1,-13 0,-25 0,-37 0,-28 5,-22 5,-25 0,-1 1,-1 2,-2 6,9 3,17 6,35 3,16 -2,24 8,33l0 31c-15,0 -25,-3 -30,7 -13,27 7,63 6,88 -65,3 -45,-4 -61,-9 -29,-10 -25,-10 -60,-12 -4,-21 -1,-23 -20,-35 -12,-7 -31,-9 -47,-5 -8,-16 -5,-15 -21,-21 -9,-3 -17,-9 -23,-10 -1,-26 -3,-22 8,-35 19,-22 -2,-15 29,-29 7,9 11,22 14,33 5,20 -1,24 23,24 8,1 11,9 13,10 3,2 1,2 7,3 1,0 9,0 10,0 9,-20 -5,-24 43,-23l5 43c26,1 25,-7 42,-17l5 -29c19,-3 27,-4 36,-18zm-14700 19l7 -5c-3,7 2,4 -7,5zm555 -25c0,13 0,14 -13,15 -13,1 -12,0 -19,-6l32 -9zm13847 11c3,-12 5,-13 11,-21 33,-1 47,21 26,26 -15,4 -26,0 -38,-5zm218 -15c5,-4 3,-1 8,-5 25,-20 -18,16 6,-7 5,-4 0,-5 19,-5l-1 20c-9,6 -22,13 -33,14l1 -17zm-14505 37c3,-20 5,-7 22,-29 10,-13 -3,-16 18,-17 4,7 3,11 1,16l-11 12c-14,12 -20,32 -32,42 -24,21 -23,52 -37,69l-16 18c-53,46 -18,58 -47,95l-36 66c-11,33 -17,31 -19,45 -5,51 -12,19 -14,51 -1,10 0,21 1,31 12,6 15,-2 23,7 5,6 3,18 5,26 3,11 6,3 9,21l4 118c-1,14 0,15 -13,16 -1,-24 -1,-49 -1,-74 0,-28 2,-44 -11,-60l-20 0c-18,14 -22,51 -17,80 3,22 6,17 -2,38 -5,12 -4,18 -15,33 -12,-5 0,3 -10,-10 -24,-34 11,-120 11,-165l25 -130c11,-13 2,-23 5,-33 12,-13 8,-10 15,-28 5,-13 7,-38 15,-50 15,-21 25,-78 56,-92 25,-12 17,-3 34,-27 5,-7 3,-4 9,-10 2,-27 2,-10 -6,-30l11 -10c3,-3 8,-7 11,-8l29 -12zm13983 -14c-38,1 -13,-28 -2,-70l80 3c-1,18 -21,26 -38,33 -15,6 -10,8 -22,15 -19,12 -7,4 -18,19zm526 -81c5,-8 6,-9 19,-9l0 13 -19 -4zm-383 -27c13,0 23,3 28,13l2 17 -17 0c-11,-8 -14,-12 -14,-30zm-273 131c1,-16 19,-29 23,-47 7,-33 11,-21 29,-41 28,-31 5,-20 32,-32 16,-7 47,-17 53,6l-23 14c-5,2 -22,6 -31,7 -11,24 -5,9 -22,29 -2,2 -19,26 -21,22l-11 21c0,1 -1,1 -1,2 -4,7 -5,10 -9,18l-21 0zm608 -131c17,0 29,4 31,20 -27,2 -30,5 -31,-20zm-118 -2c0,0 3,5 3,6 8,9 7,5 16,10 -10,12 -24,5 -46,5 4,-17 6,-20 26,-20zm-476 35c3,-30 22,-26 36,-26 -1,14 -1,5 -3,10l-4 7c-1,0 -6,-4 -16,2 -14,8 11,4 -13,7zm683 -33c3,-2 3,-5 13,-4 10,1 6,1 11,7 -2,1 1,5 -12,3l-10 -5c0,-1 -1,-1 -2,-2zm-14395 -16c2,0 11,-3 11,-3 17,-2 3,-1 9,2 0,0 7,-3 2,8 -5,11 -4,1 -22,9l1 -16zm14128 -38l7 0c2,3 5,-4 3,23 -8,-1 -10,0 -13,-7 -3,-9 1,-13 3,-16zm-300 0c5,-11 31,-17 46,-17l-1 21c-15,-3 -29,3 -45,-4zm-13370 -39l-6 -18c14,1 18,5 29,12 8,5 6,5 12,9 1,0 1,1 2,1l48 27 72 96c3,5 4,4 8,12 6,9 3,0 5,15 3,19 9,28 15,43l12 42c14,40 8,97 8,145l12 13c15,1 18,-3 26,-7 1,-38 7,-57 8,-94 1,-38 -5,-66 -3,-98l40 33c-1,0 -1,1 -2,1 0,0 -1,1 -2,1 -3,2 -2,0 -5,2 -17,11 -6,47 -3,66 43,5 4,-23 32,-42 0,0 5,6 6,8 5,7 2,0 5,8 8,23 -4,32 12,65 21,-4 11,-10 31,-10 6,12 8,18 14,30 15,1 43,2 58,0 11,-2 28,-1 35,-9 9,-10 8,-25 3,-35 0,0 -8,-13 -10,-17 14,-9 20,-1 33,3 -1,6 4,14 9,19l3 4c9,8 11,7 20,13 0,19 -4,16 -4,38 13,10 11,14 32,16 20,2 28,0 43,-4l37 39c11,4 24,3 36,8 17,6 12,6 35,5 0,-1 1,-1 1,-2l2 -4c3,-4 -1,-1 4,-6 20,-21 30,-51 77,-28 10,5 15,8 27,10l51 16c5,2 6,2 13,3 4,1 5,0 9,2 1,0 2,2 2,1 2,-4 6,18 6,22 0,7 0,14 0,20 0,33 3,37 -6,44l-12 15c-30,61 -26,41 -43,72 -12,-1 -8,-3 -23,-3 -3,6 -6,13 -11,20 -8,11 -4,1 -8,20l-23 72c0,1 -1,2 -1,2l-7 9c-9,10 -20,25 -32,19 3,-13 16,-24 24,-38 20,-36 -2,-40 27,-60 1,-25 5,-29 -21,-28 -13,20 -21,17 -24,47 -20,5 -4,16 -19,23 0,-34 7,-39 -9,-62 -50,3 -2,34 -39,36l-1 -33c-22,-20 -24,-18 -38,6l-23 14c-8,-11 -7,-15 -22,-19 -24,-6 -41,-2 -57,14l-17 18c0,-1 -1,1 -2,2l-4 -11c-1,-6 0,-4 -2,-12 -7,-21 -37,-21 -44,-1 -21,-3 -24,3 -39,9 -33,13 -93,-16 -103,32 -26,2 -47,-8 -54,14 -10,-1 -15,-1 -23,-3 -24,-6 -39,2 -65,0 -5,-43 37,-32 32,-93l-19 0c0,1 -1,2 -1,2l-4 10c-12,34 -24,40 -41,61 -6,8 -21,24 -26,31 -10,15 -9,19 -24,34 -10,10 -26,13 -36,22 -14,14 -28,19 -43,31 -26,21 -47,24 -74,37 -20,9 -67,15 -90,15 -34,0 -77,-3 -108,-7 -51,-7 -45,-17 -76,-39l-26 -18c-1,0 -2,-1 -2,-1 -44,-27 -46,-2 -53,-21 0,-1 -1,-2 -1,-2 -6,-16 -8,-12 -16,-24 -8,-13 -6,-19 -17,-31 -21,-25 -17,-103 -16,-134 1,-14 1,-11 5,-20 9,-20 12,-43 24,-64 11,-21 11,-27 31,-43 33,-26 26,-32 73,-59 7,-4 9,-3 18,-5 22,-7 15,-14 28,-23 16,-12 38,-20 56,-13 14,6 25,20 43,18 12,-1 16,-9 27,-22 29,-35 -9,-26 -32,-28l-1 -25c13,-7 21,-11 41,-12 9,3 22,35 70,-16l20 0c-4,14 -34,35 -47,44 -9,6 -7,5 -18,10 -3,12 -4,9 -3,24 35,9 24,-2 48,-4 0,9 1,10 -3,19 -4,10 -5,4 -11,15 -2,4 -1,4 -3,8 -3,9 -1,5 -4,12l-47 3c-12,2 -12,2 -13,11l1 20c2,9 6,8 9,17 12,33 3,80 -36,91 -18,5 -46,27 -70,8 -1,-1 -4,-4 -5,-5 -5,-5 -4,-3 -7,-10 0,-1 -3,-13 -3,-14l2 -11c0,-3 -1,-6 12,-6 18,1 4,9 27,7 45,-4 35,-49 9,-66 -9,-6 -4,-4 -12,-10 -23,-1 -45,-2 -68,-1 -10,0 -20,1 -28,5 -16,8 -24,19 -36,32 -19,20 -34,31 -39,62 -7,37 -11,91 3,123 3,7 6,13 10,23 20,45 12,19 25,43 6,11 8,10 12,19 9,16 20,22 34,34 20,17 39,28 64,36 13,4 15,8 23,11 22,8 106,6 123,-1 14,-6 4,-6 24,-9 28,-5 45,-19 66,-36 20,-17 57,-42 71,-62l87 -116c22,-30 24,-69 33,-103 12,-47 9,-168 2,-225 -2,-14 -4,-7 -7,-26 -6,-38 -13,-41 -30,-72l-85 -114c-14,-17 -23,-21 -35,-34 -7,-7 -2,-9 -17,-10zm-943 904c-5,-5 -17,-18 -20,-26 -4,-10 -2,-27 -4,-41 -2,-19 -1,-1 -6,-17 -11,-37 -2,-43 -14,-93 -7,-27 6,-43 -8,-80 -12,-34 4,-51 5,-73 3,-42 -4,-34 7,-82 4,-17 4,-18 11,-32 28,-54 -2,-69 67,-177 4,-6 6,-7 8,-12l25 -64c2,-7 6,-12 8,-16 38,-69 48,-35 67,-64 27,-42 52,-53 64,-68 25,-29 41,-27 51,-34 1,0 1,-1 2,-1l28 -17c21,-9 5,-1 20,-13l20 -10c15,-8 20,-7 39,-6 -3,27 -21,23 -52,43 -31,20 -14,13 -26,21 -6,4 -8,3 -16,9l-26 22c-17,12 -14,15 -22,22l-15 12c-17,19 -41,39 -52,57l-54 75c-14,27 -26,64 -33,75l-13 21c-15,31 -25,27 -29,71 -15,4 -45,141 -45,162 0,22 -1,45 -1,68 0,48 3,46 4,78 2,31 -15,36 -7,70 1,5 4,9 5,15 2,9 2,37 8,50 6,13 4,-1 6,14 1,8 -1,10 2,19 3,10 9,13 10,25l-16 0zm827 -977c-12,8 -31,5 -44,-1l0 -15 34 8c13,6 4,-3 10,8zm-295 -21c10,-1 5,-1 12,-4 29,-13 158,-8 191,-6 21,30 9,22 -71,21l-54 3c-18,0 -36,0 -54,1 -31,1 -114,37 -129,41 -22,6 -17,11 -45,11 6,-12 0,-4 10,-13 3,-3 6,-5 10,-7 5,-3 8,-3 11,-6 18,-14 21,-19 66,-24l1 -3c0,0 1,-1 1,-2 1,-2 3,-5 4,-6l47 -6zm14369 -60c-7,-11 -10,-6 -13,-21l25 4c4,12 -2,18 7,29 27,34 59,8 62,45 -39,1 -47,-1 -74,-13 -27,-12 -17,-5 -28,-17 -15,-17 -16,-6 -26,-17 25,-1 29,-2 47,-11zm-13248 -58c-1,-12 0,-2 3,-7l6 7 -7 6c-2,-3 -2,0 -3,-7zm-147 -14c-8,5 -10,5 -19,0 4,-2 7,-15 19,0zm51 -73c-6,-6 0,1 -5,-5 -19,-24 -18,-16 -32,-29 -7,-6 -1,-3 -11,-8 -8,-35 -35,-30 -36,-58 -1,-12 3,-12 10,-16 20,6 6,6 17,17 4,5 16,9 23,11l29 12c31,17 6,29 29,61 11,15 11,32 10,55 -18,-4 -4,0 -22,-23l-13 -16zm616 -638c2,-2 -3,-5 24,-4 5,0 8,0 13,1l8 2c15,2 18,-2 27,6l5 5c5,7 2,-1 3,10 -22,2 -68,-10 -81,-20zm-128 -37c0,0 -20,3 0,-17 7,18 1,15 0,17zm919 -104l103 36c-53,2 -33,-7 -61,-10l-88 -19c-5,-2 -15,-7 -22,-11 -12,-7 -13,-3 -28,-10l-10 -5c-4,-3 -6,-5 -3,-8 11,-10 50,6 57,9 14,5 13,9 22,11 8,2 19,3 29,5zm-684 -29c-5,-1 -52,-3 -54,-8 0,-1 -1,-1 -2,-1 2,-5 -7,-9 30,-10 23,0 75,2 85,27 -16,0 -16,0 -30,-4 -11,-3 -15,-2 -29,-4zm-212 79c0,-6 -1,-14 1,-20 5,-17 2,2 8,-13l17 -97c26,-5 54,18 53,31 -1,12 -20,15 -38,27 -1,19 3,22 -4,34 -5,9 -15,18 -12,38l-25 0zm299 -119c14,-6 13,-6 23,-12 7,-4 17,-4 28,-3 3,8 5,18 6,25l25 8c-7,22 -67,6 -83,5l1 -22zm11667 34l-11 -17 29 -3 -1 19 -17 2zm-11284 -17c4,-3 -2,-3 11,-5 2,0 12,0 14,0 11,1 13,0 21,4 -5,4 6,2 -11,5l-27 -1c-7,-1 -5,-2 -8,-4zm2579 -1c1,-14 -2,-12 10,-16 2,8 0,10 -10,16zm-85 -57c0,-11 1,-9 10,-13 7,11 12,21 0,30 -8,-3 -10,-7 -10,-17zm-2720 3c-34,-12 -33,-3 -47,-13 7,-10 29,-6 42,-4 58,8 0,10 58,18 -10,6 -43,4 -53,0zm2823 -33l18 0 -8 18c-8,11 0,7 -11,12l1 -29zm-2931 6c-13,6 -47,7 -56,-3 2,-8 20,-6 30,-6 14,1 18,3 27,9zm10661 -110c83,0 85,-9 132,-11 45,-2 88,-4 135,-4 26,0 27,4 46,8 43,8 57,-3 80,6 10,3 31,3 43,3 78,2 81,14 132,17 50,4 64,-8 106,9 20,8 42,8 64,11 44,6 81,11 119,30 10,5 16,9 19,18 -8,11 -7,6 -21,10 -9,3 -3,0 -9,4l-7 26c2,1 15,7 24,10 9,3 18,6 23,13 -8,11 -10,8 -20,17l0 14c15,14 11,18 19,34 15,28 41,29 72,30 29,1 21,2 39,11 9,4 11,5 18,9 22,12 47,18 58,43 11,24 27,23 25,48 -64,0 -78,-10 -73,34l49 42c6,0 14,3 17,3 16,3 47,-4 59,3 4,2 19,28 -3,47l0 47c11,3 13,17 37,16 15,0 23,-12 38,-20l15 8c0,39 -22,11 -32,40 -1,20 26,22 39,26 20,6 18,12 45,16 22,18 11,20 23,41 6,11 22,19 32,28l41 36c23,18 41,47 54,55 40,23 48,46 78,74 3,3 8,6 9,8 6,5 3,3 7,7 2,2 5,5 8,8l6 5c4,4 -1,-2 3,3 16,18 39,35 54,53l89 80c5,6 10,14 14,18 48,55 74,43 75,77 18,10 5,1 13,14 8,12 5,2 10,13 -26,0 -19,-5 -35,-11l-1 -16 -33 -5c-5,15 -18,32 -18,49 4,0 10,0 14,1 15,2 2,0 7,3 -4,11 9,5 -10,7 -43,5 -82,-16 -106,5 1,30 32,27 72,34 106,19 207,59 292,121 36,27 107,93 124,133 2,6 4,15 6,22l-2 18c-10,-5 -1,4 -9,-11 -23,-43 -27,-31 -53,-64 -6,-7 -10,-13 -15,-19 -8,-10 -15,-11 -24,-21l-29 -25c-1,0 -1,-1 -2,-2 -6,-6 -12,-14 -18,-19l-43 -25c-14,-8 -10,1 -50,-24l-42 -25c-14,-13 -31,-11 -48,-18 -17,-7 -39,-5 -58,-10 -11,-3 -8,-7 -25,-10 -17,-3 -44,-5 -58,-9l-10 -6c-30,-19 -133,-14 -168,-10l-52 15c-13,6 -39,2 -57,11l-81 24c-44,6 -34,20 -66,35 -14,6 -13,9 -23,17 -1,0 -1,1 -2,1 -1,1 -4,2 -5,2 -17,10 -29,28 -43,41 -8,7 -11,10 -18,17 -4,4 -5,4 -8,9l-66 69c-4,4 -4,4 -9,8 -15,15 -18,21 -31,40 -12,19 -10,22 -27,41 -12,12 -16,28 -25,43l-27 54c0,1 -1,1 -1,2l-42 77c-7,13 -12,43 -17,51 -8,10 -9,5 -10,24 -1,16 1,16 -6,27 -11,-21 3,-56 8,-74l16 -52c7,-26 17,-54 31,-78 7,-13 8,-13 15,-28 6,-14 4,-6 9,-12 9,-11 14,-26 22,-42 7,-13 11,-14 18,-26 7,-12 8,-16 17,-27 6,-8 6,-6 12,-12 31,-31 45,-76 85,-98l5 -3c1,-16 1,-20 -6,-28 -18,1 -18,3 -26,11 -24,24 -61,26 -84,69l-48 73c-4,7 -8,14 -13,21l-28 39 -43 113c-1,3 -4,9 -5,12 -10,22 -45,170 -46,189 -1,21 1,51 -3,70 -5,25 -9,29 -9,59 0,25 6,36 10,58 3,16 1,49 1,67 0,35 14,41 16,71 1,21 4,22 11,40l14 30c13,19 13,52 22,69l40 82c5,9 2,-3 6,11 6,21 10,23 22,45 25,45 65,101 37,154 -9,16 -9,20 -24,27 -6,3 -5,3 -11,7 -49,28 -130,20 -172,-5 -18,-11 -24,-17 -31,-36 -7,-19 -22,-20 -23,-46 5,-12 23,-16 32,-20 8,-5 16,-18 25,-24 -3,-25 5,-47 -7,-69 -12,-23 -15,-42 -31,-61 -3,-4 -2,-2 -4,-6 -9,-15 -24,-30 -37,-41 -5,-4 -5,-4 -9,-8 -22,-18 -5,-8 -32,-22 -51,-27 -63,-24 -97,15l-32 38c-6,10 -9,14 -8,23l-23 7c-1,0 -2,1 -2,1 -6,3 -12,5 -18,9l-80 103c0,0 -6,5 -7,6 -7,7 -5,10 -10,17l-98 98c-10,10 -13,20 -24,29l-74 59c-1,1 -2,3 -3,3 -9,7 -27,9 -39,19 -12,10 0,3 -15,11l-46 28c-1,0 -1,1 -2,1 -13,9 -24,17 -23,39 22,6 52,6 64,-11 6,-1 12,-1 17,-3l130 -92c1,0 1,-1 2,-1 20,-14 29,-29 57,-32 15,-1 32,-9 49,-14 19,-6 7,-4 22,-12 6,-3 15,-7 21,-9 5,-2 8,-3 12,-5 2,-1 8,-5 10,-7 4,-3 5,-4 10,-7 8,-6 1,0 9,-6l-4 -50c16,2 11,18 11,37l36 -1c3,-11 18,-27 25,-36 13,0 30,3 41,-3l19 -3c9,1 11,4 17,9l28 26c2,32 -6,33 11,54l17 0c4,-6 6,-11 10,-17 19,0 34,15 49,27 10,8 38,18 42,31 -17,8 -23,1 -42,-2 0,-1 -6,-14 -8,-19 -20,0 -27,1 -45,7 -14,5 -27,1 -38,11 0,7 -1,7 2,13 10,28 36,29 56,39l-6 16c-6,6 -42,17 -55,26l-103 76c-26,11 -55,38 -71,62l-28 30c-13,15 -23,22 -34,38l-36 49c-26,29 -31,44 -40,79 -2,7 0,-1 -1,7 -48,4 -26,-23 -41,-57 -4,-9 -5,-13 -10,-24 -5,-13 -28,-44 -41,-53l-33 -32c-6,-6 -8,-11 -17,-17l-27 -22c-22,-25 -23,-19 -50,-32 -9,-5 -5,-5 -20,-11 -18,-7 -27,-5 -40,-23 -17,0 -50,-7 -60,12 -7,13 4,28 5,34 -9,12 -23,17 -38,25 -1,0 -2,1 -2,1 -27,15 -23,41 -10,65 4,7 5,12 9,17 7,10 4,5 13,12l36 32c1,1 1,1 2,2 1,1 1,1 2,2l18 12c22,13 67,17 87,4l0 -24c-11,-9 -39,-16 -43,-30l1 -19c8,-18 36,-6 42,3 2,3 3,4 6,9l11 20 62 0c11,11 10,20 17,33 11,23 23,22 46,32l1 17c-22,1 -39,-4 -45,21l-11 24c-24,33 -29,24 -65,35 -20,6 -68,2 -89,1l-73 -17c-30,-14 -73,-13 -98,-23 -5,-2 -8,-2 -13,-4 -24,-9 -24,-15 -55,-20 -45,-9 -46,-19 -63,-27l-71 -22c-32,-10 -53,-28 -86,-35l-21 -10c-7,-3 -13,-3 -23,-8 -15,-7 -52,-19 -61,-26 -18,-13 -49,-14 -70,-22 -23,-8 -22,-1 -47,-14 -9,-5 -15,-4 -23,-7 -25,-9 -3,-16 -71,-20 -26,-2 -30,-12 -45,-15 -28,-7 -79,2 -115,-8 -39,-11 -116,-15 -155,-28 -17,-6 -33,-7 -54,-7 -43,0 -43,-10 -112,-11 -39,-1 -75,-5 -115,-4 -80,1 -161,3 -240,-1l-171 13c-55,14 -138,26 -187,43 -15,5 -20,4 -37,6 -11,1 -27,8 -38,11 -32,8 -41,2 -65,16 -14,8 -30,5 -46,8 -11,2 -15,10 -31,13 -14,2 -28,1 -41,4 -21,5 -33,12 -49,21 -11,6 -8,-1 -45,23l-16 7c-5,3 -7,6 -11,9l-155 95c-34,23 -49,46 -76,66 -40,31 -57,38 -117,35l0 -20c10,-4 27,-4 36,-12l67 -66c5,-4 17,-19 22,-24 12,-13 39,-23 55,-33l25 -19 -1 -26c-20,-6 -25,-6 -49,-3 -27,37 -46,24 -83,46 -15,9 -31,25 -45,36 -8,6 -17,14 -27,17 1,-15 5,-8 11,-20 6,-14 7,-34 -14,-36 -21,-2 -32,16 -43,30l-41 61c-9,9 -4,26 5,30 6,3 18,0 24,-1 2,-4 5,-5 8,-12 6,-13 12,-32 33,-35 -2,9 -3,23 -9,32 -6,9 0,-5 -7,8l-19 35 -54 -2c-18,-8 -13,-34 -5,-44 9,-12 3,2 9,-12 8,-19 11,-19 24,-37 30,-42 -40,-44 -55,1l-4 9c-18,34 -13,42 -33,43 1,-7 1,-9 4,-15l17 -31c10,-12 8,-36 -20,-30l-8 2c-21,6 -22,-2 -38,-6 -37,-2 -25,11 -58,11 -31,0 -73,-10 -92,12 -22,26 -19,41 -58,46 2,-20 0,-8 12,-18 13,-11 13,-13 13,-45 -10,-6 -18,-11 -31,-4 -4,2 -5,5 -11,9l-9 8c-11,17 0,6 -18,23 -10,9 -7,10 -25,11 1,-5 2,-11 6,-16 3,-4 1,-1 5,-5l5 -28c-28,-10 -47,-3 -58,23 -4,10 -10,18 -17,26l-22 2c-4,-39 14,-51 -28,-48 -4,5 -5,6 -10,9 -18,-24 -23,-20 -51,-11 0,1 1,2 1,3 0,1 1,2 1,3l10 25 -28 0c0,-18 0,-16 7,-27 -10,-8 -24,-11 -37,-11 -17,0 -36,-3 -52,3l-32 7c-8,-14 -12,-27 -31,-17 -15,8 -29,28 -50,20 -9,-3 -6,-11 -7,-24 -64,-29 -67,4 -88,28 -30,2 -69,11 -99,3 -30,-7 -58,-10 -94,-10 -31,0 -69,3 -96,-6 -21,-7 -53,-4 -77,-4l-142 6c-17,0 -35,0 -52,2l-21 3c-1,0 -2,0 -3,0 -33,3 -67,2 -100,-2l-20 -4c-13,-6 -31,-6 -46,-8 -20,-3 -27,-9 -39,-11 -17,-2 -36,1 -54,-1 -44,-6 -84,-9 -125,7 -18,7 -81,6 -109,6 -30,1 -75,10 -98,9 -40,-2 -90,-13 -128,-9 -2,0 -8,1 -8,1 0,0 -4,0 -6,1 -30,2 -52,-4 -84,-5 -40,-1 -81,-2 -122,-2l-520 18c-16,2 -31,1 -47,4 -63,11 -144,7 -192,15 -40,7 -97,5 -137,15 -30,8 -66,1 -98,5 -19,2 -23,10 -38,14 -15,4 -33,0 -49,3 -18,3 -20,10 -38,12 -5,1 -10,1 -14,1l-7 2c-37,8 -72,14 -115,14 -16,0 -36,-5 -50,-1 -11,3 -20,12 -35,15 -28,7 -60,8 -90,14 -30,6 -56,-1 -85,-10 -28,-9 -107,-53 -149,-53 -8,20 -6,18 -5,45 -35,-10 -112,-61 -146,-54 -6,25 2,11 10,30 31,4 52,16 79,26 4,1 6,2 10,3l60 29c10,5 9,4 14,13 -20,14 -35,4 -58,0 -6,-1 -13,-1 -19,-1 -27,-5 -131,-85 -183,-84 -9,14 -7,25 0,38 54,5 35,-4 85,20 18,9 53,21 62,38 -14,2 -98,8 -108,4 -21,-7 -60,-27 -81,-37 -31,-15 -52,-24 -82,-36 -9,-3 3,2 -6,-3l-22 -9c-23,-7 -32,-15 -59,-19 -8,-12 -8,-9 -29,-15 -22,-6 -45,-17 -62,-23 -7,-2 -9,-2 -16,-3l-53 -11c-9,-2 -18,-10 -28,-12 -12,-3 -30,0 -40,-4 -10,-3 -18,-10 -27,-13l-66 -19c-22,-7 -52,-4 -75,-9 -41,-8 -31,-8 -78,-9 -31,0 -47,-7 -78,-6 -63,2 -126,-2 -189,-4 -66,-2 -81,2 -159,-3 -21,-1 -32,5 -48,6 -15,2 -34,1 -50,2l-35 6c-19,4 -41,1 -61,2 -31,0 -57,10 -86,14 -33,4 -57,11 -90,11 -78,0 -95,21 -132,22 -26,1 -62,-2 -86,9 -24,11 -53,6 -80,9 -10,1 -19,6 -28,7 -21,4 -45,6 -66,9l-68 8c-24,1 -37,13 -51,17 -23,2 -33,6 -53,12 -19,6 -3,-3 -49,12 -31,10 -69,14 -105,21l-39 12c-8,3 -53,12 -83,22 -14,5 -51,3 -79,12 -26,9 -85,8 -114,13l-105 17c-20,1 -37,7 -51,13 -27,12 -83,3 -114,7 -22,3 -25,7 -54,6l-4 -13c20,-14 54,-9 76,-12 24,-4 49,-15 73,-15 30,0 45,-8 70,-18 18,-7 42,1 74,-11 21,-8 52,-10 71,-18l37 -7c11,-3 21,-8 31,-12 12,-4 22,-5 35,-9l65 -23c10,-4 17,-8 28,-13l0 -15c-9,-7 -23,-9 -35,-9 -51,2 -43,9 -105,29 -41,13 -52,10 -76,16 -58,15 -33,6 -78,13 -19,3 -19,9 -33,12 -13,3 -25,5 -39,5l-18 -23c-18,-1 -13,2 -27,7l-1 19 -12 0c-5,-10 -2,-17 -12,-21 -9,-4 -22,-2 -32,-2 -41,0 -87,-6 -123,9 -27,12 -100,3 -131,1 5,-4 -3,1 6,-4 7,-4 16,-5 25,-5 37,0 64,-14 102,-15 21,0 55,-1 71,-7 24,-8 37,-8 36,-40 -15,-10 -31,-10 -48,-3 -9,4 -12,6 -22,7 -57,6 -69,14 -135,15 -25,0 -34,5 -54,6 -33,1 -154,7 -170,1 19,-14 52,-1 71,-11 7,-4 -1,1 6,-4 32,-23 33,-7 82,-26 14,-5 67,-10 72,-30 1,-6 0,-11 0,-17 -39,-2 -83,10 -109,27 -18,11 -44,9 -65,12 -59,9 -109,17 -171,10l-20 -4c5,-4 20,-13 29,-15 7,-2 28,-4 35,-5 32,-3 39,-9 68,-13l62 -19c22,-10 41,-8 54,-29 -6,-23 -24,-17 -47,-8 -9,3 -11,7 -20,11 -14,5 -28,1 -42,8l-8 5c-7,3 -16,4 -26,4 -32,1 -28,0 -48,14 -15,0 -22,2 -33,-3 14,-11 5,-4 23,-9 12,-3 10,-4 17,-12 44,-3 53,-4 82,-18 21,-11 55,-19 42,-50 -29,-12 -41,14 -90,25 -23,5 -77,38 -105,21 11,-9 24,-7 40,-14l73 -36c10,-5 15,-17 13,-28 -4,-25 -35,-12 -52,0l-20 13c-7,4 -12,6 -17,10 -16,2 -25,1 -36,9 -12,9 -10,7 -28,10 -24,4 -28,14 -58,16 -18,2 -16,3 -29,7 -13,4 -27,2 -41,6 -19,6 -38,7 -58,6 3,-14 2,-14 17,-17 25,-6 48,-15 74,-17 12,-21 35,-7 60,-18 7,-3 6,-6 17,-9 11,-4 11,-3 20,-8 1,-43 -26,-29 -52,-21 -18,5 -29,7 -45,16 -27,15 -38,-1 -68,16 -8,5 2,2 -11,5 -5,1 -10,2 -15,2 -17,2 -20,6 -35,13l-107 13c0,-1 -1,-2 -1,-2l-5 -6c-3,-5 -2,-3 -4,-10 14,-6 30,-5 48,-6 19,-1 23,-6 39,-11 22,-7 48,0 71,-8 9,-3 2,-4 17,-6l4 -25c-9,-6 -6,-8 -23,-8l-59 16c-21,12 -67,11 -93,12 -26,1 -20,-1 -24,-4 8,-11 2,-5 19,-9 45,-9 53,-14 87,-38 9,-6 9,-3 13,-10 3,-6 3,-12 3,-22 -32,-18 -36,2 -59,15 -19,10 -130,38 -151,36 3,-3 12,-12 16,-15 20,-11 41,-11 38,-44 -31,-7 -36,8 -73,15 -17,3 -61,34 -57,-7 7,-6 2,-1 7,-9 20,-2 43,-18 61,-27 5,-3 15,-6 19,-8 22,-7 47,-15 57,-38 4,-8 2,-7 -1,-14l-38 2c-14,21 -33,30 -56,39l-10 4c-40,12 -37,16 -81,25 -3,-37 22,-21 45,-41l20 -14c8,-7 16,-15 26,-18l0 -23c-25,0 -51,31 -82,39 -14,4 -22,15 -39,22 -17,7 -23,10 -48,10 -2,-27 5,-23 20,-34 11,-8 15,-22 27,-27 28,-11 55,-16 58,-52 -24,-8 -40,-1 -53,19 -11,18 -24,25 -44,34 -23,10 -14,11 -43,12 3,-20 5,-6 19,-15 7,-4 6,-14 12,-22 13,-16 21,-19 30,-39l-27 2c-10,18 -2,8 -16,21l-52 43c-1,0 -1,1 -2,1 -23,16 -32,21 -48,25 -25,7 -26,10 -59,10 6,-7 9,-5 17,-10 1,0 1,-1 2,-2 12,-9 33,-15 42,-26 11,-14 -1,-7 16,-14 4,-24 19,-29 21,-53 -27,2 -49,28 -70,42l-28 20c-19,16 -39,27 -66,27 8,-17 15,-21 32,-28 19,-7 27,-16 41,-30 18,-17 38,-36 52,-56l33 -38c13,-13 17,-11 25,-26 5,-9 10,-13 16,-21 3,-4 5,-7 7,-10l74 -81c1,-28 2,-28 -27,-27 -10,15 -15,13 -23,32l-23 31c-16,14 -11,21 -22,32l-31 21c-9,-18 -1,-12 6,-25 1,-2 4,-10 5,-12l27 -25c6,-8 7,-14 7,-27 -28,0 -32,7 -55,47 -7,12 -10,11 -19,22 -4,5 -2,3 -4,6 -9,12 -21,21 -32,29 -32,22 -12,19 -42,46l-29 21c-14,11 -18,10 -26,21l-17 0c4,-7 6,-8 12,-12 14,-11 20,-32 56,-59l49 -66c7,-11 0,-3 9,-11 11,-9 13,-12 23,-21l53 -82c4,-6 6,-9 10,-14 17,-23 28,-27 32,-34l9 -15c5,-9 2,-9 6,-18 5,-12 7,-8 11,-13 6,-8 2,-5 6,-14l8 -15c4,-10 -1,-3 8,-13 22,-22 18,-36 18,-66l-19 0 -17 30c-2,4 -3,16 -5,19 -5,11 -4,3 -11,13 -11,16 -17,52 -40,56 0,-41 2,-24 11,-40 6,-11 9,-26 17,-37l36 -81c2,-12 10,-23 12,-35 6,-37 7,-77 0,-110 -19,-3 -28,-8 -51,1 -38,14 -19,50 -33,82 -5,11 -6,7 -7,25 -1,8 0,17 -2,25 -2,7 -7,10 -11,19 -4,9 -3,16 -6,25l-37 77c-10,20 -14,13 -18,40 -5,7 -9,11 -15,18 -6,7 -8,11 -15,19l-48 67c-4,6 -1,2 -4,6 -1,1 -2,3 -3,4l-34 30 -9 -15c-4,-15 7,-56 -11,-56 -19,0 -5,4 -21,7 5,-12 19,-27 28,-37 3,5 3,17 11,19 15,4 32,-19 39,-32 0,-1 1,-1 1,-2 21,-37 23,-31 35,-52 6,-10 3,-10 8,-20 7,-16 4,-1 10,-20 3,-9 3,-12 7,-20 12,-25 11,-57 27,-81 10,-15 5,-22 15,-39 8,-14 30,-108 33,-133 8,-57 14,-86 16,-150 1,-15 4,-34 6,-47 5,-44 -5,-89 -5,-132 0,-53 -20,-164 -29,-226 0,-1 0,-2 0,-3 -7,-45 -26,-80 -45,-121 -5,-12 -6,-23 -11,-34 -5,-10 -10,-11 -14,-26l-54 -112c-10,-23 -29,-44 -39,-69 -6,-16 -15,-22 -27,-34 -16,-15 -26,-35 -39,-52l-7 -10c-28,-34 -26,-45 -69,-80l-41 -41c-12,-11 -43,-19 -46,-35 -4,-22 17,-26 31,-33l102 -60c12,-9 26,-14 35,-22l64 -45c21,-18 43,-32 67,-45 22,-13 43,-30 60,-48 5,-6 8,-8 14,-13 1,-1 3,-2 4,-3l24 -27c5,-6 8,-9 13,-14 38,-36 27,-40 47,-61 10,-11 36,-33 48,-6 8,19 -2,18 -9,32 -3,8 -1,10 -5,19 -11,6 -18,5 -30,14 0,28 10,10 30,21 7,4 7,7 18,8 6,1 16,1 23,1 6,11 2,9 16,15 22,10 51,34 48,-8 -10,-1 -19,-3 -29,-5 -22,-6 -52,-14 -52,-40 51,2 23,4 60,12 13,3 21,10 41,17 23,8 17,11 47,9 -1,-15 -29,-46 -43,-51 -17,-5 -20,-2 -37,-11 -11,-6 -24,-4 -32,-13 8,-8 16,-8 27,-8 43,0 73,19 108,38 2,1 12,5 13,5 9,4 8,7 18,12l22 10c13,3 27,-10 -10,-34l-19 -11c-1,0 -4,-1 -5,-2 -20,-7 -18,-10 -29,-15 -7,-2 -22,-4 -32,-9l-27 -14c-10,-5 -21,-4 -32,-9 -5,-2 -6,-5 -14,-7l-53 -4c2,-10 -3,-11 10,-13 26,-5 73,9 91,11 24,2 40,8 63,18 11,5 18,6 30,11 28,11 6,18 60,18 0,-20 -6,-43 23,-44 7,0 14,1 21,1l12 -3c0,-1 1,-1 2,-2 -4,-18 -7,-5 -21,-16 -7,-6 -9,-12 -8,-23 16,-1 19,-1 28,3 16,8 33,17 52,16 17,-1 13,-6 29,-6l6 -18c3,-5 3,-3 4,-7 0,0 1,-3 1,-4l31 0 0 -17c-9,-5 -12,-7 -27,-7 -40,0 -48,-8 -78,-17 -36,-11 11,-8 -82,-25 0,0 -6,-2 -9,-2 -31,-5 -43,0 -60,25 -9,13 -21,30 -45,27 -9,-1 -9,-2 -11,-11 -1,-4 0,-7 0,-11 1,0 1,-1 2,-1l13 -8c7,-2 15,-1 22,-1 7,-13 8,-21 0,-33 -17,-2 -24,0 -36,-7 6,-20 38,-21 60,-17 46,8 11,7 86,13 27,2 20,11 46,11 41,1 59,30 93,18 24,-8 17,-14 23,-35 5,-18 9,-4 10,-47 10,-2 12,-2 23,-4 13,-2 12,-3 14,-10l-13 -3c0,-15 -1,-8 3,-20 79,-1 86,25 142,43 22,7 27,3 40,21 -6,5 -15,11 -20,16 -4,4 -1,2 -5,6 -1,1 -3,3 -3,4 -18,21 -50,4 -56,35 28,7 35,18 42,19 4,1 18,1 26,-2 13,-5 8,-20 8,-33 46,-13 71,11 78,-15 -9,-10 8,2 -6,-5 -21,-12 -24,-9 -34,-20 -12,-14 6,11 -3,-5 53,-6 61,8 109,10 20,1 17,6 30,11 12,4 26,1 37,5 5,2 18,12 26,14 20,5 40,1 56,16 11,10 29,2 41,8l19 11c34,9 30,17 66,19 37,2 59,17 100,13 1,-19 -18,-15 -33,-15 -8,-9 -18,-13 -25,-21 4,-3 -2,-3 11,-5 1,0 10,0 11,0 7,1 13,2 17,4 13,4 17,5 33,8 22,4 43,11 68,17l276 59c188,39 562,79 753,80l203 -1c106,0 206,-10 311,-19 47,-4 98,-16 144,-26 85,-18 181,-41 257,-80 20,-10 55,-33 79,-33 3,5 6,12 9,17 34,1 57,-14 80,-37 1,-1 3,-3 3,-3 1,0 1,-1 2,-2 15,-13 31,-23 31,-44 -21,-5 -34,7 -48,21 -14,14 -28,21 -50,19 34,-45 83,-64 126,-160l29 -65 28 1 -2 40c23,0 31,-10 33,-34l19 0c10,15 -5,23 22,23l6 -20c28,-3 55,3 81,4 24,1 49,6 74,7 47,2 98,13 145,15 44,2 109,4 153,11 35,5 79,6 114,7 109,4 241,19 345,20 102,1 209,14 311,13l115 4c137,5 305,5 440,5 146,0 293,0 440,-6 14,-1 29,-1 42,-2 81,-4 164,-2 245,-10l312 -18c71,5 150,6 223,5 68,-2 103,17 132,-20l51 0c11,15 25,12 44,14l12 22c14,14 20,14 39,14 9,-14 14,-4 20,-32 3,-13 12,-31 17,-38 13,4 10,6 9,23 -2,46 19,42 56,30 -2,-14 -4,-36 11,-42 19,-8 15,19 20,30 3,6 5,8 8,13l6 8c0,-1 1,1 2,2l9 -12c18,-21 18,-45 49,-19 0,22 -2,44 8,63 4,9 8,16 16,22l14 -4c-1,-5 -4,-28 -6,-32 -7,-15 -33,-30 -11,-82 35,2 22,54 51,62 2,-4 0,2 4,-6 4,-8 11,-39 34,-30 16,16 4,4 13,24 3,7 12,12 17,16 10,3 16,-5 24,-10 15,-8 25,-12 28,-34 3,-28 2,-51 14,-71l18 1c4,31 11,60 30,83l8 11c16,25 16,20 20,22 24,12 69,68 148,111 11,6 18,10 29,15 6,3 8,4 14,7 111,57 308,90 433,105 56,7 147,8 195,21l289 6c49,0 91,-3 139,-3l125 0c36,-2 29,-14 61,-14 33,0 44,-1 73,-9 41,-12 103,-7 147,-11 23,-2 44,-9 68,-11 75,-5 198,-29 274,-39 45,-6 90,-15 135,-24l585 -126c12,-4 19,-7 30,-10 11,-3 18,-8 28,-10 15,-3 23,1 33,-7 14,-11 39,-19 54,-28 12,-6 19,-4 29,-8 12,-5 12,-9 28,-13 16,-4 17,-7 28,-10l34 -6c49,-8 124,-35 159,-38l32 -8c30,-10 79,-6 107,-9 25,-3 44,-12 68,-14 32,-2 53,0 81,-9l5 -2c14,-4 30,0 44,-4 52,-16 176,-3 233,-3zm-3609 70c-10,-4 -12,-3 -23,-11 -1,-19 0,-25 2,-41 3,-20 -2,-19 -4,-35 12,-1 16,0 30,7 3,2 4,2 6,4 1,0 1,1 2,1 34,22 45,65 61,101 8,18 21,30 13,50 -10,0 -13,0 -20,-4l-10 -10c0,-1 -1,-1 -1,-2 -17,-24 -19,-42 -45,-56 -6,-3 0,-1 -9,-5zm-8620 2757l40 1c11,0 19,-1 27,2l34 -1c17,0 6,-1 10,4l24 1 6 3c26,0 50,8 70,10 4,-6 -7,-5 9,-5l159 2 6 3 22 0c7,-6 52,-1 60,1 63,11 152,8 188,21 42,16 81,5 129,9 23,2 42,13 55,15 10,1 23,0 34,1 14,2 13,6 27,10l112 26c28,2 39,1 62,10 20,7 41,6 60,11 15,4 12,6 27,8 11,2 19,2 29,4l107 34c10,2 22,1 31,4 30,8 161,52 178,65 14,10 27,12 50,21 12,5 10,8 22,11 12,3 18,2 28,7 7,4 15,9 22,12 10,4 17,6 25,12 34,22 94,45 96,46 10,6 10,8 21,14l70 35c15,6 4,6 23,11 15,4 14,3 25,11 33,23 58,34 95,45 24,7 2,11 47,24 19,5 45,5 60,10 33,12 44,11 47,23l279 0 115 -14c21,0 40,-3 60,-10 27,-10 59,-11 77,-18 13,-5 17,-9 36,-11l64 -11c7,-2 12,-2 19,-5 18,-6 41,-6 60,-10l71 -24c21,-8 27,-6 62,-8 20,-1 23,-6 38,-10 13,-4 29,-4 47,-5 2,-7 9,-10 25,-12 7,-1 10,-1 17,-3 17,-5 0,1 11,-5l133 -20c68,-2 60,-10 98,-15 20,-3 39,-13 61,-14l100 -12c40,-10 103,0 141,-12 16,-5 39,-9 64,-10 12,-1 61,-4 71,-8 39,-12 81,-6 100,-15 27,-13 70,-6 100,-11 51,-7 316,-7 364,7 27,8 39,6 69,8 44,3 87,13 132,19 30,4 58,-1 85,9 5,2 7,2 13,4 38,10 46,8 93,22 32,9 26,13 59,15 21,2 40,13 58,19l104 32c5,2 0,0 8,2 38,9 32,21 91,28 23,3 103,47 128,60 20,10 27,22 51,17l65 -13c96,-19 130,-11 206,-22l132 -17c33,-1 42,1 69,-8 11,-4 17,-8 27,-9 36,-6 64,1 103,-13 23,-9 43,-3 68,-6 21,-2 41,-14 61,-15 72,-4 36,3 100,-12 50,-12 110,0 161,-12 48,-12 104,-12 155,-14 21,-1 48,-7 67,-8 27,-1 49,-1 74,-3 44,-4 66,-12 81,-14 31,-3 82,6 125,4 20,-1 13,-7 68,-8 131,-1 320,7 443,-10 11,-2 16,-5 31,-6 16,-1 33,-5 39,11 5,12 -2,-3 1,5 12,27 108,2 130,-1 49,-6 195,4 225,-3 5,-1 9,-5 18,-8 42,-10 89,1 131,5 127,11 471,-9 549,12 66,18 208,-5 272,12 14,3 20,9 32,11 40,5 83,0 121,4 18,2 25,7 51,7l49 3c22,3 36,0 56,5 47,13 103,0 135,7 9,2 12,7 18,8 25,7 63,3 98,14 31,9 72,2 102,13 32,12 64,8 100,13 16,2 33,7 48,10 36,8 63,14 101,15 26,1 29,1 49,-6 16,-5 30,-9 39,-19l115 -89c15,-13 -10,11 3,-3l22 -21c15,-16 40,-22 54,-31 15,-10 21,-10 35,-18 11,-6 28,-8 39,-18 18,-16 15,-10 40,-18 16,-6 51,-10 66,-19 12,-7 31,-11 41,-17 6,-3 13,-5 22,-7 14,-2 13,1 23,-6 10,-7 6,-4 19,-8 1,0 2,0 2,-1 1,0 2,-1 2,-1 1,0 2,-1 2,-1l15 -6c20,-8 42,-14 66,-15 56,-2 33,-6 69,-16l18 -5c26,-8 75,-9 106,-10 2,-4 1,-1 1,-2 0,-3 -1,7 -1,-1 28,-2 36,-8 68,-9l146 -4c22,-1 42,-6 64,-6 49,-1 100,-1 149,-1 91,0 111,15 206,14 12,0 25,-1 37,0l31 7c30,6 70,-1 100,11 32,13 68,5 101,8 25,3 86,22 111,34 1,0 1,1 2,1 9,4 23,1 34,3 15,2 15,5 24,10 16,9 50,2 68,7 23,7 -4,-3 8,3 1,0 1,1 2,1 1,0 1,1 2,1l6 4c26,14 46,39 79,41 27,2 63,23 82,27 41,9 30,12 54,19 30,9 79,31 109,36 1,0 2,0 3,1 14,3 15,4 26,7 28,8 77,16 100,33 23,17 83,28 93,35l129 50 127 16c24,-3 17,-1 32,-13 19,-16 23,-44 39,-62 7,-9 12,-9 26,-11 15,-2 40,-12 53,-21 17,-12 46,-41 57,-57 9,-14 13,-29 20,-44 20,-39 15,-33 47,-62 3,-3 6,-5 9,-8 10,-9 6,-12 15,-22 1,-1 5,-5 5,-5 1,-1 2,-3 3,-4 17,-22 39,-41 61,-58l34 -30c10,-7 14,-4 25,-12l57 -52c59,-49 66,-33 116,-62l18 -15c9,-1 18,-2 27,-3 20,-3 13,-16 61,-17 44,-1 43,1 80,-13l28 -15c1,-1 3,-3 3,-4 6,-5 2,-1 8,-6 22,-15 38,-31 47,-58 3,-9 11,-34 12,-39 4,-21 -3,-31 -7,-45 -6,-20 -1,-21 -11,-40 -9,-17 -24,-30 -32,-48 -3,-7 -3,-10 -7,-17 -20,-42 -41,-61 -49,-109 -2,-11 -9,-23 -12,-38 -4,-17 -4,-31 -8,-46 -5,-19 -5,-20 -7,-45l-7 -152c0,-52 -5,-94 7,-143 4,-15 6,-30 9,-46 3,-14 3,-31 6,-45l18 -62c1,-7 1,-15 3,-22 2,-11 7,-31 12,-42 12,-26 14,-52 42,-63 15,-6 25,-8 43,-8 -11,20 -11,3 -21,13 -5,5 -9,23 5,35l40 40c6,7 16,18 23,24 16,15 37,27 51,44l64 75c6,9 11,20 18,30 17,24 34,19 52,43l29 32 17 63c4,18 6,21 14,34 15,25 16,36 30,62 28,53 7,57 63,127l10 13c16,27 40,48 51,64l21 27c36,56 36,60 91,96l62 33c71,32 99,50 187,40 19,-2 20,-5 38,-9 7,-2 14,-1 21,-4l95 -43c5,-2 3,-2 9,-5l14 -8c0,0 4,-5 5,-6l32 -40c6,-11 11,-19 18,-27 16,-19 27,-33 42,-53 9,-12 14,-14 23,-24 19,-20 42,-60 54,-85 11,-22 16,-45 26,-69 19,-41 12,-37 22,-73 4,-12 9,-23 10,-36 9,-142 24,-242 -8,-388 -7,-32 -13,-62 -25,-93 -14,-39 -33,-76 -54,-112l-34 -47c-3,-4 -1,1 -4,-6 -8,-16 0,-17 -13,-35 -15,-20 -22,-37 -43,-52 -20,-15 -9,-4 -21,-27 -4,-9 -5,-9 -7,-16 -7,-26 -25,-36 -44,-52 -32,-27 -22,-27 -73,-65l-37 -34c-11,-14 -22,-17 -28,-26 -7,-10 2,5 -3,-5 -8,-15 -11,-23 -26,-31l-15 -9c-53,-31 -22,1 -76,-63 -7,-8 -17,-15 -25,-22l-23 -17c-16,-13 -31,-42 -56,-66 -4,-4 -7,-6 -12,-11 -23,-25 -11,-28 -46,-46l-29 -18c-11,-9 -9,-14 -20,-27 -11,-13 -27,-21 -36,-35l-17 -30c-4,-6 -8,-9 -11,-12 -12,-13 -5,-10 -24,-24 -25,-18 -71,-74 -92,-100l-7 -10c-7,-10 -4,-3 -8,-16 -4,-15 -8,-12 -17,-26 -9,-14 -23,-26 -33,-38 0,-1 -1,-1 -2,-2 0,-1 -1,-2 -1,-2l-5 -12c-4,-8 -6,-8 -9,-14 -7,-13 -14,-32 -23,-44 -11,-14 -15,-12 -22,-24l-28 -43c-5,-6 -6,-3 -14,-11 -67,-63 -63,-67 -91,-142 -21,-56 -20,-44 -52,-90l-82 -59c-22,-7 -15,-9 -28,-18 -34,-25 -25,-12 -51,-21 -7,-3 -10,-6 -18,-8 -9,-3 -15,-2 -25,-3 -35,-2 -65,-25 -106,-15 -27,-30 -71,-8 -94,-27 -18,-15 -15,-13 -46,-13l-294 0c-114,1 -234,12 -346,-3 -42,-5 -74,4 -111,7 -15,7 -2,9 -51,15 -56,7 -31,1 -82,16 -28,8 -55,5 -81,14 -17,6 -87,11 -115,14 -45,5 -72,12 -111,18 -29,5 -49,14 -58,15 -27,3 -23,7 -44,11 -20,4 -40,2 -56,9l-53 12c-10,1 -6,0 -14,3l-84 27c-14,5 -31,12 -48,17 -19,6 -39,3 -53,11 -16,9 -37,6 -55,10l-311 73c-55,9 -108,24 -162,31 -34,5 -28,10 -49,15 -13,3 -18,0 -29,5 -16,8 4,1 -10,6 -27,10 -84,12 -120,22 -49,14 -113,23 -165,27 -20,2 -37,6 -57,9 -40,4 -77,8 -115,13l-240 18c-165,6 -334,16 -501,7 -41,-2 -85,-4 -125,-4 -47,-1 -72,-12 -115,-13 -26,-1 -27,-7 -49,-13 -14,-4 -41,-2 -61,-5l-44 -13c-49,-13 -5,-10 -105,-30 -47,-9 -113,-17 -155,-38 -44,-22 -123,-61 -150,-107 26,2 53,24 74,38l29 13c4,4 103,16 107,-18 -6,-31 -18,-18 -34,-36 -8,-9 -4,-12 -11,-24l-22 -45c-5,-10 -9,-11 -14,-18 -4,-6 -10,-16 -13,-22 -55,-94 -117,-66 -156,-63 -47,2 -29,10 -52,16 -30,9 -109,-12 -154,9 -22,10 -61,15 -84,18 -53,7 -147,-4 -194,10 -17,5 -38,10 -57,11 -22,1 -45,-1 -68,0 -24,1 -39,4 -64,5 -46,0 -89,-1 -132,4 -10,1 -15,6 -23,9 -13,5 -17,2 -31,5 -16,3 -33,13 -51,15 -24,3 -41,-1 -63,5 -63,20 -122,-4 -186,10 -21,5 -42,-1 -61,7 -18,7 -43,6 -62,6l-262 10c-12,-21 -76,-24 -91,-18 -3,2 -5,5 -7,6l-4 3c-1,0 -2,1 -2,1 -3,2 -4,2 -6,4 -20,14 -121,11 -154,9 -21,-1 -82,-39 -146,-21 -18,5 -43,2 -61,2 -52,0 -51,6 -78,7 -41,2 -136,-20 -203,0 -37,11 -538,-2 -619,-16 -19,-3 -66,-2 -88,-2 -78,0 -164,-6 -241,-16l-269 -31c-50,-14 -147,-6 -199,-14 -37,-6 -235,-8 -247,-13 -38,-15 -70,1 -101,18l-18 13c-11,8 -17,17 -23,31 -5,11 -11,13 -19,21 -32,-9 -17,-17 -63,-12 -23,35 -42,18 -39,90 1,20 10,38 21,44 15,8 33,1 47,14l-1 25 -13 7c-27,12 -32,27 -53,38l-103 47c-11,4 -27,5 -63,21 -1,0 -1,1 -2,1 -22,10 -42,12 -66,18 -23,5 -48,10 -71,14 -177,26 -301,32 -487,30 -312,-3 -626,-34 -932,-95l-140 -34c-23,-5 -46,-12 -70,-18 -95,-23 -127,-37 -218,-63l-46 -15c-14,-4 -55,-25 -67,-20 -10,4 6,3 -9,4 -11,-3 -21,-12 -32,-15 -27,-8 -77,-18 -92,-27 -16,-9 -31,-7 -46,-14 -23,-11 -22,-5 -47,-12 -15,-4 -22,-9 -34,-13l-73 -21c-14,-2 -28,-2 -43,-4 -23,-3 -98,-27 -112,-28 -12,-1 -35,1 -45,-3 -42,-13 -79,-13 -115,-23l-37 -11c-15,-3 -31,-2 -47,-2 -20,1 -31,5 -49,13 -11,5 -15,17 -22,24 -3,3 -1,0 -5,6l-20 27c-8,14 -3,15 -12,25 -36,38 -10,98 -31,143l-15 33c-7,14 -15,16 -19,28 -8,23 -5,14 -16,32l-13 21c0,1 -1,1 -1,2l-113 130c-8,9 -7,14 -16,22l-62 47c-48,27 -67,56 -93,70l-41 27c-4,4 -5,6 -12,11l-11 6c-40,18 -35,22 -63,38 -9,5 -21,8 -31,13 -18,8 -21,15 -29,18 -10,4 -23,10 -33,15l-21 20c0,0 -1,1 -2,2l-31 20c-16,13 -28,40 -26,68 2,23 17,48 30,61 17,19 11,58 11,85 0,39 -12,39 -2,84l2 21c3,37 25,59 64,56 18,-1 15,-8 37,-8 22,45 0,77 80,62 45,-8 46,-74 76,-67 11,3 35,44 38,51l55 120c21,40 28,90 37,139 16,78 19,160 30,237 -27,0 -23,1 -40,-9 -19,-11 -51,-10 -70,-22 -8,-5 -3,-5 -16,-6l-59 -11c-13,-3 -24,-3 -37,-6 -22,-5 -75,-27 -93,-43 -6,-5 -2,-5 -14,-10l-34 -10c-14,-6 -64,-29 -76,-39 -11,-8 -17,-10 -26,-17l-105 -61c-1,0 -2,-1 -2,-1 -5,-3 -3,-1 -6,-4 -8,-5 -3,-4 -14,-9 -23,-11 -46,-31 -67,-48l-61 -49c-8,-6 -17,-12 -24,-22 -14,-20 -32,-35 -55,-47l-17 -17c-11,-10 -27,-18 -41,-25l-33 -13c-14,-6 -15,-11 -30,-14 -8,-1 -14,-1 -21,-3 -35,-8 -46,-41 -158,-46 -53,-2 -117,-14 -172,-5 -16,3 -29,2 -45,2 -17,0 -91,19 -106,26 -11,5 -24,8 -33,15 -2,1 -7,6 -7,7 -5,3 0,0 -7,2 -12,4 -21,12 -30,15 -14,4 -10,5 -23,12 -1,0 -2,1 -2,1 -1,0 -2,1 -3,1l-18 6c-13,7 -19,9 -31,16l-74 52c-12,10 -16,21 -26,32 -8,9 -13,14 -22,22 -49,47 -76,102 -109,138 -34,37 -20,30 -34,59 -10,21 -33,32 -37,75 -8,4 -18,28 -14,52 -23,15 -13,45 -21,67 -11,32 -15,78 -16,114 -1,18 -5,23 -7,44 -6,85 3,170 16,251 4,24 6,43 17,64 2,4 4,5 6,8 12,20 23,62 32,87 17,50 27,35 42,61 15,26 35,59 43,88 2,7 5,8 8,16 8,21 11,26 28,37l23 17c57,60 44,38 84,75 10,9 18,22 27,27 27,16 75,20 97,38 10,8 66,50 80,53 11,3 11,1 21,5 40,18 39,6 66,13 29,7 10,18 81,22 44,3 137,30 173,31 10,0 94,1 96,3z"/> <path class="fil0" d="M2985 6058c15,1 10,3 17,10 12,13 21,17 35,34l85 114c17,30 24,34 30,72 3,19 5,12 7,26 7,57 10,178 -2,225 -9,33 -11,72 -33,103l-87 116c-14,20 -50,44 -71,62 -20,17 -38,31 -66,36 -20,4 -10,4 -24,9 -17,7 -101,9 -123,1 -8,-3 -10,-7 -23,-11 -25,-8 -44,-20 -64,-36 -14,-12 -25,-17 -34,-34 -5,-9 -6,-8 -12,-19 -13,-23 -5,3 -25,-43 -4,-10 -7,-16 -10,-23 -14,-33 -10,-86 -3,-123 6,-30 20,-42 39,-62 12,-12 20,-24 36,-32 8,-4 18,-5 28,-5 23,-1 45,0 68,1 8,5 3,4 12,10 26,17 36,63 -9,66 -23,2 -10,-6 -27,-7 -13,-1 -11,2 -12,6l-2 11c0,0 3,13 3,14 3,7 2,5 7,10 1,1 4,4 5,5 25,19 52,-2 70,-8 38,-11 47,-58 36,-91 -3,-9 -7,-8 -9,-17l-1 -20c2,-9 1,-9 13,-11l47 -3c4,-7 2,-3 4,-12 1,-4 1,-4 3,-8 5,-11 7,-5 11,-15 3,-8 2,-9 3,-19 -24,2 -13,13 -48,4 0,-15 0,-13 3,-24 10,-5 8,-3 18,-10 12,-9 42,-30 47,-44l-20 0c-48,50 -61,19 -70,16 -19,1 -28,5 -41,12l1 25c23,2 61,-7 32,28 -11,13 -15,21 -27,22 -18,2 -29,-13 -43,-18 -19,-8 -41,1 -56,13 -12,9 -6,16 -28,23 -9,3 -11,1 -18,5 -47,27 -40,33 -73,59 -20,16 -20,22 -31,43 -11,22 -14,44 -24,64 -4,9 -4,6 -5,20 -2,31 -5,109 16,134 10,12 8,18 17,31 8,12 11,8 16,24 0,1 1,2 1,2 8,19 10,-6 53,21 1,0 2,1 2,1l26 18c30,22 25,33 76,39 31,4 75,7 108,7 24,0 70,-6 90,-15 28,-13 48,-17 74,-37 15,-12 30,-17 43,-31 10,-10 26,-13 36,-22 15,-15 13,-19 24,-34 5,-8 20,-23 26,-31 16,-21 28,-27 41,-61l4 -10c0,-1 0,-2 1,-2l19 0c5,62 -37,50 -32,93 26,2 42,-7 65,0 9,2 13,2 23,3 7,-22 28,-11 54,-14 10,-48 70,-19 103,-32 15,-6 18,-11 39,-9 6,-20 37,-20 44,1 2,7 1,6 2,12l4 11c1,-1 2,-2 2,-2l17 -18c16,-15 33,-20 57,-14 15,4 14,8 22,19l23 -14c14,-24 15,-26 38,-6l1 33c37,-1 -11,-33 39,-36 15,23 8,29 9,62 15,-7 -1,-18 19,-23 3,-31 11,-28 24,-47 26,-1 21,2 21,28 -29,20 -7,24 -27,60 -7,13 -21,24 -24,38 12,6 23,-9 32,-19l7 -9c0,-1 1,-2 1,-2l23 -72c4,-19 0,-9 8,-20 5,-7 8,-14 11,-20 15,0 11,2 23,3 17,-31 13,-11 43,-72l12 -15c9,-7 7,-11 6,-44 0,-7 0,-14 0,-20 0,-4 -3,-26 -6,-22 0,1 -2,-1 -2,-1 -4,-1 -5,-1 -9,-2 -7,-1 -8,-1 -13,-3l-51 -16c-13,-3 -17,-5 -27,-10 -46,-23 -57,7 -77,28 -5,5 -1,2 -4,6l-2 4c0,0 -1,1 -1,2 -22,1 -18,1 -35,-5 -13,-4 -26,-3 -36,-8l-37 -39c-16,4 -23,6 -43,4 -21,-2 -19,-7 -32,-16 0,-22 4,-20 4,-38 -9,-6 -11,-5 -20,-13l-3 -4c-5,-5 -10,-13 -9,-19 -14,-4 -19,-12 -33,-3 2,5 10,17 10,17 5,10 6,25 -3,35 -7,8 -24,8 -35,9 -15,2 -42,1 -58,0 -6,-12 -8,-18 -14,-30 -20,1 -10,7 -31,10 -17,-34 -4,-42 -12,-65 -3,-8 0,-1 -5,-8 -1,-1 -6,-8 -6,-8 -27,19 11,47 -32,42 -3,-19 -14,-55 3,-66 3,-2 1,0 5,-2 0,0 2,-1 2,-1 0,0 1,-1 2,-1l-40 -33c-2,32 5,60 3,98 -1,37 -7,56 -8,94 -8,4 -11,8 -26,7l-12 -13c0,-48 6,-105 -8,-145l-12 -42c-6,-15 -12,-24 -15,-43 -2,-15 1,-6 -5,-15 -5,-7 -5,-7 -8,-12l-72 -96 -48 -27c-1,0 -1,-1 -2,-1 -6,-4 -4,-4 -12,-9 -11,-7 -15,-11 -29,-12l6 18z"/> <path class="fil0" d="M2631 7099c0,-16 -1,-32 0,-47 1,-17 2,-30 10,-37 3,3 6,0 7,20 0,8 0,16 0,24 1,80 4,43 7,72 2,20 1,50 1,71 -15,-3 -15,-2 -18,-18 -3,-12 -3,-13 -7,-26 -6,-18 2,-38 2,-59zm362 47c0,7 2,19 -3,25 -10,-7 -15,-18 -15,-32 7,3 11,4 18,7zm331 -105c0,-16 1,-23 3,-35 3,-19 -4,-18 8,-27 5,6 4,5 4,18 -1,38 1,18 10,37 7,16 7,36 7,54 0,7 0,9 -2,15 -5,14 1,4 -8,8 -23,5 -21,-49 -21,-71zm-677 -50c0,-22 7,-27 21,-35l-1 31c-8,2 -10,4 -21,4zm975 -27c0,-18 17,-43 27,-57 13,0 22,-3 24,10 3,16 -3,18 -11,22 -19,10 -24,23 -39,25zm-268 -40c-1,-24 1,-17 9,-28 1,-1 4,-9 6,-12l7 -6c4,-18 -10,-41 -49,15 -9,13 -25,75 -26,85 -5,53 -1,120 -4,180l-25 0c-4,-9 -16,-23 -16,-30 -16,0 -17,0 -30,9 -1,39 12,59 -22,84 -20,15 -27,2 -40,-2 -19,-6 -35,-10 -37,-35 0,-6 0,-16 -2,-22 -1,-3 -8,-11 -11,-13 -14,-12 -14,-18 -25,-18 -5,10 -4,9 -3,23 24,11 13,9 26,32 6,11 7,5 8,19 1,9 0,18 -1,27 -30,17 -26,7 -52,-8 -2,-22 -12,-35 -22,-49 -10,-14 -6,-5 -12,-25l-14 -57c-4,-16 -16,-31 -21,-46 -11,-34 3,-29 6,-47 0,-1 0,-5 -1,-6 -11,0 -16,0 -25,7 0,21 -5,35 -7,53 -2,22 4,37 -11,48 -19,-6 -12,-61 -10,-86 5,-3 9,-6 13,-10 1,-17 3,-13 -6,-20 -14,22 4,13 -23,29 0,6 0,19 -1,24 -3,12 -6,2 -6,21 0,15 3,79 9,93 8,19 8,18 8,43 -19,-13 -23,-16 -30,-38 -4,-11 -3,-17 -6,-29 -2,-7 -6,-15 -8,-22 -20,-53 13,-67 9,-111 -21,-2 -23,11 -29,27l-14 40c-6,22 -3,31 0,51 1,9 0,16 2,25 5,16 19,16 6,37 -16,26 -5,26 5,43 3,6 6,23 7,31 3,20 3,12 15,22 5,4 5,8 9,11 5,4 3,1 10,6l0 13c-17,0 -31,0 -41,-9l-28 -23c-10,-11 -12,-19 -17,-34 -5,-18 -8,-16 -20,-28 0,-20 -2,-20 9,-31 1,-24 1,-39 -6,-57 -16,3 -5,3 -14,16 -8,13 -17,10 -19,2 0,-1 -1,-2 -1,-3 -3,-11 -2,-31 0,-43 1,-3 2,-6 3,-10 7,-24 4,-27 -6,-42 -9,-13 -14,-17 -14,-37 5,-3 8,-4 13,-7l-3 -31c-17,9 -19,30 -20,49 -20,11 -16,39 -16,67 0,28 0,56 1,85 6,1 2,-4 8,7 18,31 33,52 24,92 -26,0 -44,-26 -53,-49 0,-1 -1,-2 -1,-3 -10,-25 -7,-32 -25,-55 -13,-16 -22,-26 -9,-70 15,0 33,5 31,-13 -1,-8 -3,-10 -10,-10 -13,-1 -6,3 -17,3 -9,-14 -8,-18 -6,-40 1,-16 3,-26 3,-45 11,-10 17,-16 13,-32l-5 -9c0,-1 -1,-2 -2,-2l-24 0 -6 -13c-8,-3 -8,-3 -17,-4 -20,24 -19,46 -30,60 -9,12 -10,28 -14,47 -1,3 -1,13 -5,19 -4,8 -10,8 -17,9 -15,-34 -7,-56 -6,-92l8 -6c1,0 1,-1 2,-2 44,-42 24,-61 32,-85 -13,-3 -24,-7 -28,5l-10 34c-4,27 -18,46 -19,71 -1,19 -7,23 -9,39 -2,14 -1,28 -1,42 0,27 -1,113 10,128l9 15c3,5 8,8 10,11 10,16 -1,15 18,28 22,15 33,18 52,40 14,16 21,13 50,42l21 23c18,13 26,37 52,38 0,-21 -2,-13 -11,-25 -9,-12 -3,-12 -20,-17 -2,-74 -58,-37 -57,-99 14,0 21,4 29,12 21,19 16,12 30,37 37,0 20,3 36,-19 14,1 9,-2 16,6 7,8 -1,5 7,9 9,4 21,3 31,7 15,6 30,18 42,28l23 14c9,4 19,4 31,7 29,7 21,14 60,11l-1 -21c-20,-3 -23,-9 -37,-20 5,-16 14,-8 13,-34 -25,-12 -31,-46 -7,-64 18,5 20,10 29,26 17,33 25,30 32,50 15,38 9,26 16,63 11,6 19,9 32,11 14,3 19,9 27,17 -2,9 -2,9 -8,16l-11 10c0,-1 -1,1 -2,2 4,2 -1,2 11,4 3,1 10,1 13,1 23,28 67,12 95,4l7 -2c1,0 2,-1 2,-1l58 -27c29,-13 64,-20 91,-38l82 -44c14,-6 1,-5 17,-12l75 -47c0,-1 1,-1 1,-2 29,-31 58,-29 92,-70l52 -43c21,-14 36,-48 53,-60l33 -43c9,-23 24,-40 36,-62l19 -37c0,-1 1,-2 1,-2 22,-53 -36,-33 -78,-47 -26,-9 -30,-21 -64,-17 -5,1 -16,0 -22,18 -10,27 -17,22 -37,38l-28 26c-7,5 -17,8 -22,16 -9,15 -10,34 -10,51l-24 5c-1,-19 -1,-42 5,-58 4,-11 1,-13 5,-25l3 -25c-19,-3 -27,8 -40,14 -3,19 -7,36 -6,56 2,44 5,59 -21,93 -11,15 -15,18 -39,19 -8,8 -5,6 -13,13 0,29 -1,34 -14,50l-18 0c-18,-29 -2,-185 -7,-231l-26 -5z"/> <path class="fil0" d="M16669 7051l-1 -30 24 1c-1,14 44,49 47,56 4,10 0,60 -31,18 -21,-29 -24,-28 -39,-45zm460 -47c7,11 10,11 21,16 1,17 2,22 -8,37 -8,12 -38,45 -56,55 -8,4 -34,14 -42,23 0,1 -1,1 -1,2l-9 11c-52,60 -131,41 -220,39 -10,-12 -14,-11 -19,-21 -12,-28 6,-33 35,-28l52 4c20,0 41,2 61,1 19,-1 71,-18 83,-32 35,-41 60,-11 55,-62 -56,-7 -35,10 -81,10 2,-23 4,-12 16,-23l15 -18c28,-26 5,3 38,-33l34 -40c4,-5 3,-7 6,-11 6,-10 6,-8 10,-11 14,-13 0,-17 22,-20 8,17 -1,56 -6,77 -2,9 -5,14 -5,25zm-541 -132l0 -24 16 -10c37,9 15,26 28,53 8,16 6,33 11,48 6,20 21,3 18,68l-26 -1c-7,-13 -7,-6 -20,-34 -34,-74 0,-56 -25,-96 0,-1 -2,-4 -3,-5zm408 -487c3,12 13,22 3,37 -11,18 -36,7 -53,3l-56 -18c-49,-11 -66,5 -109,18 -1,0 -2,1 -3,1l-5 2c-8,3 -11,3 -17,7 -3,2 -6,3 -8,5 -1,1 -3,2 -4,2l-56 46c-23,16 -36,47 -50,72l-25 49c-10,21 -22,48 -28,70l-1 5c-25,81 -30,169 -12,252 3,15 10,19 14,33 6,18 8,20 13,38 3,12 8,20 17,30l22 29c8,12 42,65 50,71 6,4 23,20 43,31 18,9 29,5 47,15l22 13c6,1 34,6 39,7 9,4 4,5 15,9 19,6 106,6 118,-2 6,-4 3,-3 9,-5l56 -24c14,-8 34,-9 47,-21l21 -20c16,-18 44,-38 56,-58l2 -4c0,0 5,-9 5,-9 8,-11 19,-16 25,-28 8,-14 26,-38 29,-49 6,-19 19,-36 26,-54 0,-1 1,-4 2,-5l9 -11c5,-8 2,-11 8,-19 11,-14 4,4 10,-15 11,-39 8,-7 24,-85 3,-15 2,-30 7,-47 5,-15 4,-32 -7,-41 -12,22 -10,51 -19,78l-25 73c-4,14 -3,27 -8,40 -7,18 -19,32 -25,49 -4,11 -12,20 -21,27 -15,10 -20,2 -21,1 -11,-9 -7,-17 -5,-35 11,-6 24,-33 29,-48 6,-21 11,-47 10,-71 -6,-5 -13,-8 -20,-13l0 -42c9,-4 13,-9 17,-17l20 -1c14,-23 13,-59 19,-86 19,-97 -16,-72 -27,-113 -3,-10 -5,-14 -3,-25 -17,-3 -24,-9 -30,-24 -4,-12 -8,-28 -16,-38 -8,12 -8,38 -4,55 5,20 30,28 -1,59 2,17 16,25 24,38 4,6 10,14 11,20 7,26 -2,36 -7,52 -5,14 -3,8 -5,25l-12 50c-2,11 -6,10 -10,20 -7,17 -1,19 -19,55 -4,7 -2,7 -5,13 -3,6 -8,11 -12,15l-28 33c-9,10 -9,16 -19,25l-62 45c-12,1 -14,3 -25,-1 -25,-8 -28,-3 -50,12 -15,10 -31,8 -46,3 0,-24 2,-27 33,-40 3,-44 28,-49 59,-70 6,-4 3,-3 13,-7l8 -3c1,0 9,-3 10,-3 2,-10 3,-9 7,-15 -3,-3 -7,-6 -10,-9l1 -34c-29,1 -32,27 -47,33 -16,6 -41,-16 -45,-30 1,-22 7,-12 7,-34 -19,-2 -15,1 -23,-11 -24,-37 18,-30 1,-59l-9 -18 -36 4c-26,3 -6,-26 7,-38 19,-18 17,-28 27,-52 3,-8 4,4 3,-30 -14,4 -19,14 -26,25 -24,34 -72,-15 -80,-20l0 -18c12,-11 40,-41 36,-57 -19,-8 -52,8 -68,17l-33 18c-1,0 -1,1 -2,1 -4,3 -60,58 -66,69 -11,21 -24,42 -29,66 -5,23 -16,23 -19,44 -2,14 -2,28 -19,31 -13,2 -17,-3 -17,-14 0,-12 7,-14 10,-25 3,-14 0,-32 1,-47l20 -44c9,-12 24,-21 30,-33 7,-14 -2,-8 12,-23 6,-6 7,-9 12,-18 8,-14 47,-49 61,-60l27 -15c9,-3 16,-2 26,-4 29,-5 -4,-11 69,-14 52,-2 50,5 66,17 11,8 30,10 44,17 30,14 30,34 46,56l13 22c5,11 5,28 4,41 -10,5 -20,6 -30,11 -11,5 -17,14 -29,21 -4,2 -3,2 -6,4 -5,4 -1,1 -5,5 -1,1 -5,3 -6,4 -2,2 -17,21 -17,23 25,2 40,-4 61,-9 8,-2 13,-1 20,-4 9,-4 17,-16 24,-24 12,-13 7,-43 13,-60 0,-1 1,-2 1,-2 0,-1 0,-2 1,-3 10,-42 20,-53 4,-104 -3,-11 -9,-10 -20,-10 -16,0 -20,-1 -22,-17 -1,-5 0,-15 -1,-21 0,-11 1,-22 -1,-32l-20 1z"/> <path class="fil0" d="M16300 6472c14,-6 16,-14 24,-22 6,-6 -13,7 6,-5l14 0 10 18c11,14 35,-4 42,48l29 5c10,8 6,9 17,14 32,6 11,-13 37,17 2,3 4,5 7,6 14,9 20,1 31,16l8 10c8,7 8,5 21,2 7,-14 3,-25 14,-37 20,-23 14,5 48,-26l15 -15c0,-1 1,-1 2,-2l54 -65c26,-20 -3,-7 46,-32 6,-3 9,-8 14,-13 0,-1 1,-1 2,-2l10 -13c22,-1 30,2 48,-6 -56,-29 -24,-6 -48,-47 -25,-2 -48,-11 -68,-21 -21,-10 -22,-2 -50,-17l-17 -7c-11,-3 -25,-5 -36,-7 -8,-1 -11,0 -19,-3 -23,-7 -17,-22 -30,-37 -9,-9 -21,-9 -39,-8 -14,13 -10,16 -37,17 -21,1 -63,20 -79,32 -16,12 -7,23 -15,42l-22 48c-8,16 -9,6 -13,28 -4,19 -8,27 -19,41 -5,6 -6,4 -9,11 -4,10 -1,19 2,25z"/> <path class="fil1" d="M12088 5208c8,-5 17,-4 26,0l-4 3c-13,3 -16,1 -22,-3zm-424 -91c4,-5 -7,-13 37,-10l0 17c-25,0 -24,-6 -37,-7zm-305 -109l17 5c9,12 18,15 20,32l-17 0c-14,-15 -9,-6 -17,-12 -17,-15 2,-10 -35,-27 -24,-11 -4,-14 -36,-14 -1,40 4,28 26,47 17,14 7,1 45,27 11,7 18,18 52,39l82 39c25,21 43,11 65,28l22 8c11,1 16,-3 22,-7 1,-20 3,-21 -14,-25 -18,-5 -15,-9 -29,-13 -11,-3 -48,-9 -53,-28 22,-2 27,2 42,7 16,6 33,1 46,8 4,2 8,6 14,9 21,10 34,16 59,22 13,3 22,10 36,15 40,13 81,19 102,30 24,13 80,23 106,26 34,5 36,11 92,13l60 6c69,13 38,14 136,10 24,-27 25,-32 69,-39 33,-5 72,2 104,3 59,1 105,-9 152,-10 27,-1 27,-4 50,-9 0,-26 -38,-19 -67,-19 -30,0 -61,1 -91,1 -116,0 -196,-12 -311,-9 -24,1 -21,3 -40,-6 -24,-10 -57,-5 -80,-12 -23,-8 -13,-2 -37,-6 -21,-4 -26,-4 -39,5l0 28c-32,0 -51,1 -75,-14 -6,-4 -11,-9 -16,-14l0 -20c-15,-9 -16,-19 -41,-21 -29,-2 -34,4 -47,-15l-27 -1c-3,-6 -4,-10 -8,-16 -33,-1 -56,3 -67,-7 -9,-9 -11,-6 -37,-7 2,24 15,3 27,20 -80,0 -35,-3 -79,-10 -28,-4 -10,-7 -30,-13 -40,-11 -12,-6 -32,-15 -20,-10 -56,-10 -65,-23l-42 -45c-3,-4 -20,-2 -25,-2 0,15 -2,7 4,16l9 14z"/> <path class="fil0" d="M2219 7213c-10,-15 -23,-16 -35,-29 -12,-13 -15,-25 -41,-25 0,17 1,22 9,32l44 37c17,7 3,10 24,16 3,22 6,12 9,37 19,-5 68,52 68,52 8,12 3,13 8,22 10,18 44,24 59,32l44 20c12,4 13,8 20,11 19,8 95,29 105,47 18,3 24,6 39,12l30 7c11,1 30,4 38,6 12,4 26,12 43,14l30 2c46,2 21,-1 59,8 52,13 180,5 235,5 34,0 42,-9 78,-10 32,-1 54,2 84,-4l45 -13c38,-17 48,-17 88,-31 17,-6 2,-3 15,-8 8,-3 10,-1 17,-3 16,-4 46,-24 59,-28 16,-5 24,-8 33,-13l24 -19c8,-9 20,-16 29,-22 1,0 1,-1 2,-2 1,0 1,-1 2,-2 30,-26 62,-44 92,-70 17,-14 33,-28 39,-50 -10,5 -13,8 -21,14 -70,50 -144,93 -223,129 -17,8 -23,16 -41,23l-118 44c-9,4 -13,5 -23,7 -22,3 -33,15 -47,16 -37,3 -22,-2 -54,11 -32,13 -251,8 -311,5 -24,-1 -32,-9 -51,-13 -34,-8 -50,3 -105,-24l-83 -46c-14,-9 -33,-9 -49,-15l-107 -56c-20,-16 -31,-23 -52,-31 -1,0 -2,-1 -3,-1l-15 -8c-1,0 -2,-1 -2,-1 -1,0 -2,-1 -2,-1 -1,0 -2,-1 -2,-2 -1,-1 -3,-3 -4,-3 -20,-16 -11,-12 -32,-22l-49 -55z"/> <path class="fil0" d="M2042 6962l16 0c-1,-12 -7,-15 -10,-25 -3,-9 -1,-10 -2,-19 -2,-15 0,-1 -6,-14 -6,-13 -6,-41 -8,-50 -1,-6 -4,-10 -5,-15 -8,-34 8,-39 7,-70 -2,-32 -4,-29 -4,-78 0,-22 1,-45 1,-68 0,-22 30,-158 45,-162 3,-43 14,-40 29,-71l13 -21c7,-10 19,-48 33,-75l54 -75c11,-18 35,-38 52,-57l15 -12c8,-7 5,-10 22,-22l26 -22c8,-6 10,-5 16,-9 12,-7 -5,-1 26,-21 32,-21 49,-17 52,-43 -19,0 -24,-1 -39,6l-20 10c-15,12 0,4 -20,13l-28 17c-1,0 -1,1 -2,1 -10,7 -26,5 -51,34 -13,15 -37,26 -64,68 -19,30 -30,-5 -67,64 -2,4 -6,9 -8,16l-25 64c-2,5 -4,6 -8,12 -69,108 -38,122 -67,177 -7,14 -8,14 -11,32 -10,48 -4,40 -7,82 -2,22 -18,39 -5,73 13,37 1,53 8,80 12,50 3,56 14,93 5,16 4,-2 6,17 2,14 0,30 4,41 3,8 15,21 20,26z"/> <path class="fil0" d="M2385 6767l0 16 23 -3c0,45 6,86 3,124 -2,35 -12,8 -13,83l-11 58 -10 -24c-15,-25 -18,-20 -21,-39 0,-1 0,-2 0,-3l-3 -288c-5,-13 -1,-4 -6,-10l-5 48 -10 6 -1 146c-5,35 1,113 5,152 2,24 17,64 36,79 5,4 8,3 20,3 2,2 1,1 5,5 11,15 8,53 10,72l38 24c8,5 7,4 19,4 1,-40 -15,-41 -25,-66 -4,-10 -6,-36 0,-43 7,-4 -9,-3 8,-3 18,0 1,8 33,7l1 -117c2,-10 9,-22 -4,-47l-23 -1c-7,25 -4,62 -5,91 -7,7 -3,0 -7,12 -6,15 2,6 -9,15 -17,-21 -17,-47 -17,-74 1,0 3,-2 6,3l11 -39c3,-12 4,-32 3,-48 -1,-18 -9,-21 -6,-44l3 -85c6,-3 4,-3 14,-4 1,-2 -2,-2 3,-6l13 -7c16,-13 24,-14 24,-40 1,-19 1,-19 -10,-27 -5,3 -3,1 -6,4 -1,1 -7,6 -7,6l0 34 -21 3c-3,5 -1,4 -3,7l-14 21 -17 0c-1,-1 -1,-3 -2,-2l-10 -15c-13,-30 8,-31 11,-54l1 -32c-1,-6 -1,-4 -3,-7 -19,19 -20,81 -20,105z"/> <path class="fil1" d="M17129 7004c0,-11 3,-16 5,-25 5,-21 14,-60 6,-77 -21,2 -7,7 -22,20 -3,3 -4,1 -10,11 -2,4 -2,6 -6,11l-34 40c-32,36 -10,7 -38,33l-15 18c-11,11 -14,0 -16,23 47,0 25,-17 81,-10 4,51 -20,21 -55,62 -12,14 -64,31 -83,32 -20,1 -41,0 -61,-1l-52 -4c-30,-5 -48,1 -35,28 5,10 9,9 19,21 89,2 168,21 220,-39l9 -11c0,-1 1,-2 1,-2 7,-9 34,-19 42,-23 18,-9 49,-43 56,-55 10,-16 9,-20 8,-37 -10,-5 -13,-6 -21,-16z"/> <path class="fil0" d="M2374 6273l-29 12c-3,1 -8,5 -11,8l-11 10c8,20 8,4 6,30 -7,6 -4,3 -9,10 -17,23 -9,15 -34,27 -31,15 -42,72 -56,92 -8,11 -10,36 -15,50 -7,18 -4,15 -15,28 -4,9 5,19 -5,33l-25 130c0,45 -34,131 -11,165 9,14 -2,5 10,10 10,-14 10,-21 15,-33 8,-21 5,-16 2,-38 -4,-29 0,-67 17,-80l20 0c13,16 11,33 11,60 0,25 0,49 1,74 13,-1 13,-2 13,-16l-4 -118c-2,-18 -6,-10 -9,-21 -2,-8 0,-20 -5,-26 -8,-9 -11,-1 -23,-7 -1,-10 -2,-20 -1,-31 2,-31 9,1 14,-51 1,-14 8,-12 19,-45l36 -66c29,-37 -6,-49 47,-95l16 -18c14,-16 13,-48 37,-69 12,-10 17,-31 32,-42l11 -12c2,-5 3,-9 -1,-16 -21,1 -8,4 -18,17 -17,22 -19,9 -22,29z"/> <path class="fil0" d="M2300 6859c0,-14 0,-27 0,-41 -1,-44 8,-109 7,-152 -1,0 -2,-1 -2,-1l-10 -4c-12,-7 -7,-18 -15,-36 -14,10 -15,27 -14,44 27,9 10,152 10,196 0,36 1,73 1,108 0,18 -1,36 -1,54 0,23 7,33 -13,37l-6 -14c-1,-6 -1,-13 -1,-19 -4,-3 -6,-5 -11,-9 -5,-5 -2,-3 -9,-8 -12,14 -5,21 -3,37 1,7 0,17 1,23 3,16 23,58 33,76 13,24 27,39 35,52 11,16 36,30 52,34 -1,-9 -7,-18 -11,-28 -16,-35 -1,-26 -25,-57 -19,-24 -2,-66 -17,-142 0,-1 -1,-2 -1,-3 -2,-13 -2,-27 -1,-40 2,-24 11,-43 7,-74 -2,-14 -6,-12 -6,-34z"/> <path class="fil0" d="M16959 6246c-9,13 -16,15 -36,18l-5 29c-17,10 -16,18 -42,17l-5 -43c-49,-1 -34,4 -43,23 -1,0 -9,0 -10,0 -6,-1 -4,-1 -7,-3 -2,-2 -5,-9 -13,-10 -24,0 -18,-4 -23,-24 -3,-11 -7,-25 -14,-33 -30,14 -10,7 -29,29 -12,13 -9,9 -8,35 6,1 14,7 23,10 17,6 14,5 21,21 16,-4 36,-3 47,5 19,11 16,13 20,35 35,2 31,1 60,12 16,6 -4,12 61,9 0,-25 -19,-60 -6,-88 5,-10 15,-7 30,-7l0 -31c-11,-9 -6,-17 -8,-33 -3,-18 0,-26 -6,-35 -1,1 -2,1 -2,2 -1,4 -5,-3 -5,25 0,13 0,25 0,37z"/> <path class="fil0" d="M2503 6845c0,25 -4,38 -3,61 0,10 1,21 1,31 -1,15 -5,16 -4,30l7 115c4,57 -54,62 7,126 11,11 1,1 16,9 1,0 1,1 2,1 1,0 1,1 2,1 5,2 5,3 12,3 0,-6 -7,-31 -10,-36 -21,-35 -20,-10 -9,-78 3,-16 3,-28 3,-48 0,-37 5,-80 -2,-116l-1 -6c-2,-12 7,-50 10,-55 5,-7 0,-3 7,-4 9,-4 -10,-3 17,-5 9,-1 9,-1 17,-3l-4 -43c-14,-11 -18,-15 -46,-13 0,1 -3,7 -3,7 -6,9 0,1 -6,7 -5,5 -8,7 -11,15z"/> <path class="fil0" d="M2377 6334c7,9 11,10 27,20 2,51 -9,39 -28,84 -1,3 -5,11 -7,14l-34 77c-2,6 -1,4 -2,8l-10 20c-3,6 0,2 -4,6l-6 4c24,39 -3,45 20,61 7,-10 6,-14 8,-25 4,-18 6,-6 19,-49 7,-24 6,-3 14,-53 2,-14 4,-14 11,-23 12,-16 3,-34 22,-48l0 -31c27,-13 25,-6 26,-58 7,-5 21,-15 30,-16l1 -20 -27 4 4 -31c-22,-1 -23,5 -31,13 0,1 -1,1 -2,2 -7,7 -28,24 -32,42z"/> <path class="fil0" d="M15714 7139l38 0c11,11 9,5 16,12 14,14 25,38 23,63 -6,-2 -11,3 -16,6 -2,36 17,34 40,21 4,-31 -1,-38 -7,-61 -11,-40 4,-16 -22,-45 -33,-36 -9,-31 -56,-41l-33 -2c-10,16 -13,17 -13,44 0,47 -4,55 16,95 9,17 9,6 12,43 8,5 11,9 23,11l-1 -24c-3,-3 -6,-1 -12,-17 -9,-24 -20,-16 -18,-95l10 -11z"/> <path class="fil0" d="M2526 5970c0,0 -3,4 -4,6 0,0 -1,1 -1,2l-1 3c-46,5 -49,10 -66,24 -4,3 -6,3 -11,6 -4,2 -6,5 -10,7 -10,9 -4,1 -10,13 28,0 23,-5 45,-11 15,-4 97,-40 129,-41 18,-1 36,-1 54,-1l54 -3c80,1 92,9 71,-21 -33,-2 -162,-6 -191,6 -7,3 -2,3 -12,4l-47 6z"/> <path class="fil0" d="M11486 4798c12,8 13,7 23,11 10,4 3,1 9,5 26,14 28,31 45,56 0,1 1,1 1,2l10 10c7,4 11,5 20,4 8,-20 -5,-32 -13,-50 -16,-36 -27,-78 -61,-101 -1,0 -1,-1 -2,-1 -2,-1 -3,-2 -6,-4 -14,-8 -18,-8 -30,-7 3,15 7,15 4,35 -2,15 -3,22 -2,41z"/> <path class="fil0" d="M2100 6818c0,60 15,71 20,112 3,25 3,17 13,33l5 65 19 -1 0 -24c27,-1 31,8 27,-52 -1,-20 1,-10 -7,-13l0 41c-1,1 -3,2 -4,2 -9,7 -2,5 -23,5 -3,-25 -7,-7 -7,-41 0,-74 -3,-41 -9,-57 0,-26 -10,-141 -6,-154 -10,-6 -10,-5 -17,-12 -8,14 -11,75 -11,94z"/> <path class="fil0" d="M2883 6585c23,2 57,28 98,14l4 -10c5,-20 -12,-17 -23,-25 -8,-7 -8,-14 -14,-23 -16,-23 -15,-19 -22,-21 -1,0 -2,0 -3,-1 -12,-5 -7,-5 -12,-16l-37 0c-3,14 -4,16 0,27 9,23 6,25 9,54z"/> <path class="fil0" d="M2892 6449c0,26 3,24 12,35l5 8c21,1 11,1 23,7l47 15c4,1 8,3 13,4 5,1 6,1 13,2 17,3 36,7 53,9 25,4 39,1 39,-22 -35,-1 -28,12 -56,-8 -20,-6 -6,15 -56,-19l-21 -15c-1,0 -2,-1 -2,-1 -3,-2 -2,0 -4,-2 -11,-11 2,-29 -24,-22 -13,4 -3,5 -15,8 -4,1 -21,1 -27,1z"/> <path class="fil1" d="M4677 5180c17,39 4,13 35,30 37,20 16,5 43,18 10,4 20,10 28,13 7,2 11,3 19,6 40,19 28,5 47,14 15,7 5,7 32,9 23,1 14,4 27,13l35 1c-4,-7 1,-4 -14,-11 -29,-13 -31,-10 -44,-24 -8,-9 -17,-12 -31,-16 -16,-5 -18,-10 -30,-14 -19,-5 -19,-3 -35,-12 -16,-9 -8,-2 -25,-8l-85 -18z"/> <path class="fil1" d="M5324 5167l20 0c6,-7 7,-6 9,-16 -21,-14 -94,-30 -121,-31 -27,-1 -27,3 -54,-16 -1,0 -1,-1 -2,-2 -1,0 -1,-1 -2,-2 -10,-7 -15,-6 -29,-9 -26,-6 -5,-9 -50,-9 4,16 7,12 18,21 14,11 0,12 27,14 14,1 19,2 29,8 20,11 9,4 31,10 19,5 6,8 24,13 13,4 25,1 38,4 24,5 27,16 62,16z"/> <path class="fil0" d="M2497 6474l0 27c-26,5 -18,3 -24,8 -13,-5 -23,92 -24,113 0,24 -6,31 17,29 -3,-8 -4,-7 -1,-17 4,-12 3,-7 18,-23 5,-5 5,-7 13,-11 -8,-42 10,-39 14,-66 4,-28 -6,-29 10,-52l13 -35c-19,5 -3,6 -26,21 -5,3 -6,4 -10,7z"/> <path class="fil0" d="M2895 7369c-13,-3 -18,-6 -24,-15 -33,-3 -98,-34 -69,3 16,20 18,15 35,24 3,2 3,2 6,4l14 8c41,24 13,6 33,15 8,3 8,8 10,10 3,2 12,5 17,8 7,4 7,6 16,5 16,-2 28,-6 35,-10 0,-10 0,-19 -8,-23 -6,-3 -2,-1 -8,-3 -13,-4 -21,-7 -30,-11 -16,-9 -5,-9 -27,-13z"/> <path class="fil1" d="M16616 6972c13,28 12,21 20,34l26 1c2,-66 -12,-48 -18,-68 -5,-15 -3,-32 -11,-48 -13,-27 9,-44 -28,-53l-16 10 0 24c1,1 2,4 3,5 25,40 -9,21 25,96z"/> <path class="fil0" d="M3550 5718c10,5 4,2 11,8 14,13 14,5 32,29 5,7 -1,0 5,5l13 16c18,23 4,19 22,23 1,-22 0,-40 -10,-55 -23,-32 2,-44 -29,-61l-29 -12c-7,-2 -19,-6 -23,-11 -10,-11 3,-11 -17,-17 -7,5 -11,4 -10,16 1,28 28,23 36,58z"/> <path class="fil0" d="M2601 6291c0,22 3,4 -14,33 0,1 -1,1 -1,2l-15 25c-15,18 -10,13 -21,39l-22 40c-1,12 11,9 23,8 -3,-15 6,-18 17,-36 8,-12 11,-11 22,-19 2,-20 8,-35 19,-50l9 -13c7,-12 19,-25 36,-23 0,-11 1,-8 2,-21l-18 3c-17,7 -18,10 -36,11z"/> <path class="fil1" d="M4792 5015c8,14 14,16 36,18 20,2 24,3 37,12 12,0 24,0 34,4l35 10c19,7 43,4 63,3 -5,-22 -12,-7 -42,-20 -38,-17 -33,-3 -52,-12 -9,-4 2,0 -8,-5 -17,-8 -11,2 -39,-12 -18,-9 -32,-9 -56,-9l-5 8c0,0 -1,1 -2,2z"/> <path class="fil0" d="M4109 5032l25 0c-4,-20 7,-28 12,-38 7,-12 3,-15 4,-34 18,-12 37,-14 38,-27 1,-14 -27,-37 -53,-31l-17 97c-6,14 -3,-4 -8,13 -2,5 -1,14 -1,20z"/> <path class="fil0" d="M17034 6740c7,4 8,3 20,3 9,0 18,0 27,-1 25,-19 5,-24 5,-50 0,-25 20,-36 7,-60 -2,2 -5,8 -7,11 -6,7 -6,4 -14,10 -43,31 -29,27 -32,57 -2,16 -8,7 -10,20 -3,15 2,8 3,10z"/> <path class="fil0" d="M16226 6283l21 0c4,-8 5,-11 9,-18 0,-1 1,-1 1,-2l11 -21c2,3 19,-21 21,-22 17,-20 10,-6 22,-29 8,-1 25,-5 31,-7l23 -14c-6,-23 -38,-13 -53,-6 -27,12 -4,1 -32,32 -19,20 -23,8 -29,41 -4,18 -22,31 -23,47z"/> <path class="fil0" d="M2083 6656c10,8 3,7 17,10 0,-18 0,-37 0,-55 0,-26 4,-23 30,-27 -1,-37 -16,-55 -18,-91 -28,62 -30,82 -29,162z"/> <path class="fil0" d="M3192 7154l15 -1c0,-8 1,-20 -1,-27 -22,-86 -10,-112 -19,-156l-4 -11 -5 10c-14,46 -9,43 -6,88 4,51 -2,10 7,51 3,12 4,10 7,19 4,10 2,16 5,26z"/> <path class="fil0" d="M3981 6859c-1,30 3,45 -6,69l-12 35c-4,11 -5,0 -6,25 12,-2 11,-2 23,-21 12,-19 7,-16 12,-36 9,-37 14,28 16,-78 0,-27 9,-26 7,-53l-15 0c-2,25 -3,46 -18,60z"/> <path class="fil0" d="M16356 6259c11,-15 -2,-7 18,-19 12,-7 7,-9 22,-15 17,-7 37,-16 38,-33l-80 -3c-11,43 -36,72 2,70z"/> <path class="fil0" d="M16942 5905c-18,9 -22,10 -47,11 11,11 12,0 26,17 10,12 1,5 28,17 27,12 35,14 74,13 -3,-38 -35,-11 -62,-45 -9,-11 -3,-17 -7,-29l-25 -4c4,15 6,10 13,21z"/> <path class="fil0" d="M2716 6780l27 1c1,-47 -9,-19 -16,-53l-16 -54 -17 1c-5,39 -13,81 22,106z"/> <path class="fil1" d="M2631 7099c0,21 -8,41 -2,59 4,12 5,13 7,26 3,15 3,14 18,18 0,-21 1,-50 -1,-71 -3,-29 -6,8 -7,-72 0,-8 0,-16 0,-24 -1,-20 -4,-17 -7,-20 -8,7 -9,20 -10,37 -1,16 0,32 0,47z"/> <path class="fil0" d="M2496 6341c33,-1 23,-7 38,-12 10,-4 14,-1 27,-11l32 -23c0,0 1,-1 2,-1 -6,-20 -26,-24 -44,-17 -1,0 -2,1 -2,1 -38,17 -9,3 -31,22 -11,9 -3,-1 -9,14 -3,8 0,2 -4,9 -7,11 -6,3 -6,18z"/> <path class="fil1" d="M3984 7187c27,-6 25,-17 28,-21 4,-8 14,-16 20,-24l17 -27c4,-6 13,-26 5,-34 -4,-4 -14,-4 -21,-2 -14,5 -2,7 -18,30l-17 27c-11,21 -15,29 -14,51z"/> <path class="fil1" d="M16708 7097c31,41 35,-8 31,-18 -3,-7 -48,-42 -47,-56l-24 -1 1 30c15,18 18,17 39,45z"/> <path class="fil0" d="M5108 5018l-103 -36c-9,-2 -20,-3 -29,-5 -9,-2 -8,-7 -22,-11 -7,-3 -46,-19 -57,-9 -3,3 -1,5 3,8l10 5c15,7 16,3 28,10 7,4 17,9 22,11l88 19c27,3 8,12 61,10z"/> <path class="fil0" d="M2066 7045c26,16 17,93 64,94 0,-16 -10,-39 -17,-53 -2,-5 -1,-2 -4,-6 -12,-15 -9,-16 -17,-43 -6,-23 -13,-26 -27,-27l1 35z"/> <path class="fil1" d="M4491 5122c4,12 -4,4 11,11 21,10 9,13 48,19 24,4 34,15 77,15 -2,-8 -3,-7 -2,-15 -29,-6 -115,-48 -134,-30z"/> <path class="fil1" d="M3324 7041c0,22 -2,75 21,71 9,-4 3,6 8,-8 2,-6 2,-8 2,-15 0,-19 1,-38 -7,-54 -9,-20 -10,0 -10,-37 0,-13 0,-11 -4,-18 -12,9 -5,8 -8,27 -2,11 -3,19 -3,35z"/> <path class="fil1" d="M4739 5055c4,10 19,28 37,30 1,0 11,0 13,0l54 -3c-6,-3 0,3 -7,-3 -7,-6 3,-10 -21,-19l-9 -3c-8,-5 -5,-11 -36,-12 -17,0 -23,0 -30,9z"/> <path class="fil0" d="M2869 7430c-22,-8 -81,-9 -95,-2l19 21c28,1 87,7 98,-5 -3,-6 5,-4 -22,-14z"/> <path class="fil0" d="M4409 4913l-1 22c16,1 76,17 83,-5l-25 -8c-1,-6 -3,-17 -6,-25 -11,-1 -21,-1 -28,3 -10,6 -9,6 -23,12z"/> <path class="fil0" d="M2776 6733c0,1 -1,1 -1,2 0,0 -6,14 1,27 4,8 37,32 14,39 -6,2 -20,-3 -30,-3 1,15 -1,7 9,15 1,0 2,1 2,1l6 7c22,0 23,-3 37,-13 0,-24 3,-32 -11,-46 -24,-24 -13,-26 -20,-30 -11,-6 -4,0 -6,1z"/> <path class="fil0" d="M17119 6794l17 -2c0,-28 12,-30 18,-50 5,-18 11,-40 11,-59 -14,1 -15,5 -19,16 -15,37 -13,22 -20,60 -3,13 -6,15 -7,34z"/> <path class="fil0" d="M3250 7062c10,-12 7,-26 6,-47 0,-18 0,-36 0,-54l10 -6 15 -47c9,-13 3,3 8,-11 -15,0 -17,-1 -29,21l-2 5c-19,35 -15,125 -9,140z"/> <path class="fil0" d="M17300 6476c4,-10 4,-39 3,-47 -3,-14 0,1 -5,-11 -8,-16 -4,-46 -5,-67 -2,-4 -10,-11 -13,-19 -5,-13 0,-16 -9,-27 -6,12 -1,29 2,42 11,45 -4,22 17,87 6,19 1,24 11,42z"/> <path class="fil1" d="M4633 5216c-15,-7 -25,-17 -46,-8 8,8 1,2 12,8 17,9 14,18 34,24 42,12 2,17 63,16 -2,-10 0,-8 -8,-14l-14 -9c-1,0 -2,-1 -2,-1 -1,0 -2,0 -3,-1 -4,-2 -2,0 -8,-2l-24 -12c-1,0 -2,-1 -2,-1z"/> <path class="fil1" d="M5079 5320c-12,-4 -38,-22 -67,-8 5,10 -5,2 7,10 23,16 15,16 31,19 14,3 48,7 49,-13 -4,-2 -12,-6 -21,-9z"/> <path class="fil0" d="M5267 7971c0,-17 -6,-20 -22,-16 -44,11 -61,7 -107,11 -7,9 -11,10 -20,15l149 -10z"/> <path class="fil1" d="M11078 4912c-2,4 -3,-5 -4,11l9 41c15,14 13,15 35,10 -10,-58 -18,-37 -22,-65l-18 3z"/> <path class="fil0" d="M2618 7397l11 21c28,-2 46,20 80,15l0 -23c-8,0 -20,1 -27,0 -13,-1 -21,-15 -64,-13z"/> <path class="fil0" d="M15813 7368c-38,-31 -26,-41 -48,-42 2,14 9,17 16,31 5,11 9,13 23,24 13,10 45,33 63,26 -10,-12 -41,-29 -53,-39z"/> <path class="fil0" d="M4265 4944c1,0 2,0 2,1 2,5 49,7 54,8 14,2 18,1 29,4 14,4 14,4 30,4 -10,-24 -62,-27 -85,-27 -37,0 -28,5 -30,10z"/> <path class="fil0" d="M2398 6520l0 27 -11 5c1,11 -2,9 4,18l3 -4c1,-5 1,-4 1,-9l14 -1c-4,-16 -3,-12 2,-23l20 -91c-17,5 -17,16 -20,34 -4,22 -13,15 -13,44z"/> <path class="fil1" d="M16093 5028l0 13c4,3 -3,-1 7,5 16,8 43,31 67,12 -5,-13 -24,-16 -37,-24 -7,-4 -2,-1 -6,-4 -10,-8 -21,-11 -31,-3z"/> <path class="fil1" d="M4819 5140c3,3 2,3 6,5 15,10 9,-1 44,10l25 2c-1,-16 -5,-20 -20,-25 -37,-12 -46,-10 -56,7z"/> <path class="fil0" d="M3111 6936l0 27 22 1c1,-12 19,-41 21,-47 1,-3 3,-1 0,-7 -12,-23 -41,23 -43,25z"/> <path class="fil0" d="M16268 6372c24,11 19,-13 27,-29 2,-4 5,-4 7,-14 2,-9 1,-16 1,-25 -20,5 -36,40 -37,45 -1,2 -1,11 -1,13 1,11 2,8 4,11z"/> <path class="fil1" d="M3622 6963c15,-2 20,-15 39,-25 8,-4 14,-6 11,-22 -2,-13 -11,-10 -24,-10 -10,14 -26,39 -27,57z"/> <path class="fil1" d="M4587 5258c-7,1 -4,1 -7,3 8,8 -3,2 10,8 18,7 15,16 22,18 17,1 27,4 40,-2 0,-14 1,-13 -10,-17 -11,-4 -2,1 -10,-3 -8,-4 -19,-12 -44,-7z"/> <path class="fil1" d="M4320 5258c-7,1 -4,1 -7,3l47 37c25,0 25,1 20,-20 -27,-9 -43,-22 -61,-20z"/> <path class="fil1" d="M3981 7363c17,-1 9,1 18,-6l35 -31c1,-22 3,-23 -19,-23l-34 60z"/> <path class="fil1" d="M4752 5118l-3 -22c-13,-13 -10,-15 -44,-13 -3,46 13,28 47,35z"/> <path class="fil0" d="M3897 7102c11,-11 10,1 10,-27 -11,3 -15,5 -19,15 -2,4 -2,10 -4,13 -4,13 0,4 -6,11 -7,9 -22,26 -22,45 8,-2 7,0 12,-8 5,-8 2,-5 10,-11 4,-3 0,1 5,-5 12,-16 12,-17 13,-34z"/> <path class="fil0" d="M3432 6978c-2,11 -5,57 1,64 3,3 8,4 12,1 10,-5 6,-61 1,-73 -8,3 -6,3 -14,7z"/> <path class="fil1" d="M11438 5007c14,6 39,12 58,12 -4,-18 -10,-24 -26,-30 -22,-8 -34,-5 -32,18z"/> <path class="fil0" d="M2700 6321c-1,17 -5,38 16,28 2,-1 14,-8 16,-11 4,-5 3,-13 3,-23 -18,-11 -19,-4 -35,6z"/> <path class="fil0" d="M4214 5123c13,10 59,21 81,20 -1,-11 2,-3 -3,-10l-5 -5c-10,-8 -13,-4 -27,-6l-8 -2c-5,-1 -8,-1 -13,-1 -27,-1 -22,3 -24,4z"/> <path class="fil0" d="M4520 4863c14,10 13,1 47,13 10,4 43,6 53,0 -58,-8 0,-10 -58,-18 -13,-2 -35,-5 -42,4z"/> <path class="fil0" d="M3037 7035c0,6 0,14 0,20 2,16 5,16 6,17l14 0c1,-29 -9,-23 -10,-58 0,-2 0,-9 0,-10 -2,-16 0,-5 -4,-10 -9,10 -7,18 -7,41z"/> <path class="fil0" d="M16660 6251c12,5 23,10 38,5 20,-6 6,-28 -26,-26 -6,8 -8,9 -11,21z"/> <path class="fil0" d="M2189 6459l-1 40 16 0c1,-55 9,-39 11,-60 -12,1 -7,-4 -26,20z"/> <path class="fil0" d="M12193 7932c2,-28 13,-6 12,-41 -12,-1 -20,0 -28,5 -2,27 -7,32 16,36z"/> <path class="fil0" d="M2198 7103c6,-17 3,-25 1,-43l-20 -1c-2,11 -4,18 -1,29 4,16 7,14 19,15z"/> <path class="fil0" d="M2840 6773l24 5c1,-36 -5,-9 -12,-37l-22 -1c0,9 -2,11 1,19 0,0 4,7 4,7 1,2 3,6 3,7z"/> <path class="fil0" d="M15304 7914c15,0 23,0 37,-8 5,-3 2,6 7,-7 7,-19 -6,-23 -6,-23 -15,8 6,1 -17,17 -1,0 -2,1 -2,1 -10,7 -14,11 -19,19z"/> <path class="fil0" d="M2970 7447c18,-1 23,4 44,-3 -3,-24 -16,-18 -41,-17 -3,9 -3,8 -3,20z"/> <path class="fil0" d="M15104 7746c-1,-1 -4,-4 -5,-6 -3,-4 -1,-3 -4,-6 -17,-25 -10,-18 -21,-19l6 35c1,0 1,1 2,1l22 11 11 -6c-5,-3 -4,-3 -6,-5l-6 -5z"/> <path class="fil0" d="M16879 6236l-1 17c11,-1 24,-8 33,-14l1 -20c-19,0 -14,0 -19,5 -24,23 19,-12 -6,7 -5,4 -3,1 -8,5z"/> <path class="fil1" d="M4719 5140c-16,-11 -13,2 -24,-18 -14,-1 -21,-2 -33,2 0,0 0,1 4,4 13,11 17,16 36,16 14,0 13,-1 18,-5z"/> <path class="fil0" d="M16355 6097c15,7 30,1 45,4l1 -21c-15,0 -42,6 -46,17z"/> <path class="fil0" d="M15095 7658c-1,17 -4,30 16,27 17,-3 11,-16 6,-27l-23 0z"/> <path class="fil0" d="M16512 6182l17 0 -2 -17c-6,-11 -15,-13 -28,-13 0,19 3,22 14,30z"/> <path class="fil0" d="M16689 6170c22,1 36,8 46,-5 -9,-5 -8,-1 -16,-10 0,0 -3,-6 -3,-6 -21,0 -23,3 -26,20z"/> <path class="fil0" d="M2902 6760l14 17 20 0 -19 -22c-17,-25 -2,-14 -15,-29l0 34z"/> <path class="fil0" d="M3356 6334c-1,19 1,25 22,18 5,-11 3,-19 2,-27 -14,0 -16,3 -24,9z"/> <path class="fil1" d="M4658 5086c0,-22 -3,-22 -34,-20 1,21 13,20 34,20z"/> <path class="fil0" d="M12111 7914c30,13 33,-2 34,-20 -14,-1 -26,1 -34,20z"/> <path class="fil0" d="M2825 5985c13,6 32,9 44,1 -7,-11 3,-2 -10,-8l-34 -8 0 15z"/> <path class="fil0" d="M4401 4846c9,10 43,9 56,3 -9,-6 -12,-8 -27,-9 -10,0 -28,-2 -30,6z"/> <path class="fil0" d="M16239 6185c24,-3 -1,2 13,-7 10,-6 15,-2 16,-2l4 -7c2,-5 2,4 3,-10 -15,0 -33,-4 -36,26z"/> <path class="fil0" d="M12077 7894c-1,0 -2,1 -3,1l-5 2c-14,7 -12,12 -11,21l28 -1c1,-17 1,-16 -10,-23z"/> <path class="fil0" d="M11702 5123l0 -17c-45,-2 -33,5 -37,10 13,1 12,7 37,7z"/> <path class="fil1" d="M2648 6991c11,0 12,-1 21,-4l1 -31c-15,8 -21,12 -21,35z"/> <path class="fil0" d="M16864 6172c-2,-17 -14,-20 -31,-20 0,25 3,23 31,20z"/> <path class="fil1" d="M4396 5235l6 20 29 0c-4,-16 -14,-20 -35,-21z"/> <path class="fil0" d="M17119 6473c4,-9 3,-11 3,-24 0,-20 1,-18 -4,-27 -3,4 -2,0 -5,9 -4,14 -6,31 5,42z"/> <path class="fil2" d="M3422 6872c60,-1 0,-48 0,0z"/> <polygon class="fil0" points="16065,4930 16076,4947 16093,4945 16094,4926 "/> <path class="fil1" d="M4885 5190c-13,-7 -22,-4 -29,4 9,11 22,9 35,4 -3,-8 1,-4 -6,-8z"/> <path class="fil1" d="M4525 5038c3,16 5,14 24,14l0 -17c-18,0 -14,-2 -24,4z"/> <path class="fil0" d="M7297 4889c12,-9 7,-19 0,-30 -9,4 -10,2 -10,13 0,10 2,13 10,17z"/> <path class="fil1" d="M2990 7170c5,-6 3,-17 3,-25 -7,-4 -11,-5 -18,-7 0,14 5,25 15,32z"/> <path class="fil0" d="M17101 6554c14,-8 5,4 9,-16 3,-16 7,-12 -5,-19 -11,9 -8,25 -4,34z"/> <path class="fil0" d="M2523 7309c-9,-10 -4,-7 -17,-7l1 20c17,0 13,3 23,-3 -3,-11 4,4 -3,-6l-3 -4z"/> <path class="fil0" d="M2527 6135l-1 16c18,-8 17,2 22,-9 6,-12 -1,-8 -2,-8 -6,-4 8,-4 -9,-2 0,0 -9,3 -11,3z"/> <path class="fil0" d="M4792 4930c3,2 1,3 8,4l27 1c17,-3 6,-1 11,-5 -8,-4 -10,-4 -21,-4 -2,0 -12,-1 -14,0 -14,2 -7,2 -11,5z"/> <path class="fil0" d="M2367 7169c5,-9 4,-8 3,-21 -6,-1 -19,-6 -18,7 1,10 8,12 15,14z"/> <path class="fil0" d="M2377 6594l0 17 17 0 0 -20c-8,0 -10,1 -17,3z"/> <path class="fil0" d="M7388 4872c10,-4 2,-1 11,-12l8 -18 -18 0 -1 29z"/> <path class="fil1" d="M4456 5206c0,-1 -1,1 -2,2 4,4 -8,9 18,8 21,-1 10,0 14,-8 -1,-1 -4,-4 -17,-4l-12 3z"/> <path class="fil0" d="M2385 7194c-1,20 -5,25 13,26 0,-19 5,-25 -13,-26z"/> <path class="fil0" d="M2781 6249c7,7 6,7 19,6 13,-1 13,-2 13,-15l-32 9z"/> <path class="fil0" d="M16664 6121c2,-27 -1,-20 -3,-23l-7 0c-2,3 -6,7 -3,16 2,7 4,6 13,7z"/> <path class="fil0" d="M3655 7209c11,0 13,1 20,-7l15 -26c-15,10 -23,23 -35,33z"/> <path class="fil0" d="M5042 8039c16,2 26,4 36,-4 -11,-5 -28,-7 -36,4z"/> <path class="fil0" d="M3077 6947l14 0c1,-17 2,-14 -3,-21 -11,5 -10,8 -10,21z"/> <path class="fil0" d="M3446 6949l3 -12c0,-6 0,-14 0,-20 -12,5 -15,28 -3,32z"/> <path class="fil1" d="M11211 4923l14 0c-1,-9 0,-8 -4,-14 -5,-7 -2,-4 -10,-7l0 21z"/> <path class="fil0" d="M3929 7134c0,-1 -1,1 -2,2l4 9c11,-3 12,-1 12,-16 -7,0 -5,-1 -11,1 -1,0 -1,9 -3,3z"/> <path class="fil0" d="M16922 6151c1,1 2,1 2,2l10 5c13,2 10,-2 12,-3 -4,-6 0,-6 -11,-7 -11,-1 -11,2 -13,4z"/> <path class="fil0" d="M16882 6178l19 4 0 -13c-13,0 -14,1 -19,9z"/> <path class="fil0" d="M8288 7959c8,9 -3,4 10,9 4,2 0,1 8,2 6,1 3,0 6,-2 -1,-3 4,-9 -23,-9z"/> <path class="fil0" d="M3196 6947c4,-6 3,9 4,-10 1,-14 -2,-10 -4,-14 0,1 -4,-1 -4,11 -1,17 3,12 4,13z"/> <path class="fil0" d="M3233 6886c11,-3 12,-5 17,-14l-17 0 -1 14z"/> <path class="fil0" d="M8348 7982c3,2 -5,3 10,4 16,0 8,-2 10,-4 -2,-1 4,-4 -10,-4 -18,-1 -6,1 -10,4z"/> <path class="fil0" d="M2144 6581c1,1 -4,4 10,3 14,0 7,-2 10,-3 -4,-3 -16,-12 -20,0z"/> <path class="fil0" d="M4086 5086c2,-2 8,1 0,-17 -20,20 0,17 0,17z"/> <path class="fil0" d="M12088 5208c6,4 9,6 22,3l4 -3c-9,-4 -18,-5 -26,0z"/> <path class="fil0" d="M3529 5833c8,5 11,5 19,0 -12,-15 -15,-2 -19,0z"/> <path class="fil0" d="M3849 7163c-12,6 -1,2 -10,16l13 0 -3 -16z"/> <path class="fil0" d="M3653 6804l18 5 -2 -15c-7,5 -8,5 -16,10z"/> <path class="fil0" d="M2489 6791c7,4 -8,3 8,4 19,0 7,-2 9,-4 -3,-3 10,-3 -6,-4 -18,0 -6,1 -10,4z"/> <path class="fil0" d="M2759 6344c4,11 -8,4 12,8 -1,-6 0,-8 -4,-10 -10,-7 -9,2 -9,2z"/> <path class="fil0" d="M7371 4929c10,-6 12,-8 10,-16 -11,4 -9,2 -10,16z"/> <path class="fil0" d="M2662 7362c14,-1 7,5 11,-10 -17,1 -11,-4 -11,10z"/> <path class="fil0" d="M2675 6381c13,-1 8,4 10,-9 -15,2 -7,-3 -10,9z"/> <path class="fil0" d="M3595 6739c10,-4 8,-4 3,-12 -7,5 -8,4 -3,12z"/> <path class="fil0" d="M3697 5854l7 -6 -6 -7c-3,4 -4,-6 -3,7 0,6 1,3 3,7z"/> <path class="fil0" d="M2955 7569c-8,-4 -15,-2 -27,-2 9,4 15,2 27,2z"/> <path class="fil0" d="M3000 7572c-4,-5 7,-4 -10,-4 4,5 -8,4 10,4z"/> <path class="fil0" d="M3108 7581c-15,0 -5,-1 -9,5 14,0 6,1 9,-5z"/> <path class="fil0" d="M2258 6265c9,-1 4,2 7,-5l-7 5z"/> <line class="fil2" x1="16993" y1="6581" x2="16993" y2="6581"/> <polygon class="fil0" points="3029,7576 3023,7573 "/> <polygon class="fil0" points="3273,7586 3267,7583 "/> </g> </svg>